<svg width="50" height="50" viewBox="0 0 50 50" fill="none" xmlns="http://www.w3.org/2000/svg">
<path d="M23.9649 0.233003C24.1374 0.329356 24.1374 0.329356 24.2368 0.644247C24.2814 0.986928 24.3052 1.33204 24.3328 1.67666C24.3414 1.78308 24.35 1.8895 24.3588 1.99915C24.4665 3.38694 24.5293 4.7772 24.5911 6.16796C24.5976 6.31172 24.604 6.45548 24.6105 6.59924C24.7254 9.16215 24.8078 11.7238 24.8335 14.2895C24.8348 14.409 24.8362 14.5284 24.8375 14.6515C24.8461 15.4362 24.8525 16.2208 24.8563 17.0055C24.8577 17.2618 24.8595 17.5181 24.8618 17.7743C24.8647 18.1305 24.8657 18.4866 24.8661 18.8427C24.8674 18.9495 24.8686 19.0563 24.8699 19.1664C24.8696 19.2648 24.8693 19.3632 24.869 19.4645C24.8695 19.5928 24.8695 19.5928 24.8701 19.7237C24.8239 20.0191 24.7262 20.1586 24.5352 20.3774C24.011 20.692 23.6177 20.7376 23.0434 20.5873C22.7116 20.4859 22.3824 20.3788 22.0539 20.2659C20.0535 19.6171 17.9317 20.1073 16.1338 21.1122C15.8933 21.2503 15.6887 21.3941 15.4641 21.5648C15.1867 21.7419 15.1867 21.7419 14.9754 21.7628C14.6661 21.5541 14.5436 21.2223 14.3911 20.8825C14.3564 20.8066 14.3217 20.7307 14.2859 20.6525C13.5844 19.0715 13.2988 17.2922 13.3966 15.5491C13.4001 15.4802 13.4037 15.4113 13.4073 15.3403C13.6681 10.8102 16.2495 6.88806 19.3621 3.91985C19.4938 3.79783 19.6261 3.67658 19.7591 3.55617C19.901 3.42728 20.0412 3.29642 20.1803 3.16419C20.2513 3.09681 20.3223 3.02943 20.3955 2.96001C20.4598 2.89844 20.5242 2.83688 20.5905 2.77345C20.756 2.63856 20.756 2.63856 20.9549 2.63856C20.9549 2.56928 20.9549 2.5 20.9549 2.42863C21.1916 2.22542 21.4293 2.03377 21.6759 1.84477C21.822 1.73166 21.9681 1.61849 22.1141 1.50528C22.1871 1.44892 22.26 1.39257 22.3352 1.33451C22.5274 1.18374 22.716 1.02948 22.9035 0.872215C22.957 0.827911 23.0104 0.783607 23.0654 0.737961C23.2093 0.618176 23.3525 0.497371 23.4956 0.376508C23.7395 0.224392 23.7395 0.224392 23.9649 0.233003Z" fill="#553920"/>
<path d="M15.6218 35.8073C15.8829 35.9122 15.8829 35.9122 16.1813 36.1221C16.1957 36.4174 16.194 36.6939 16.1813 36.9881C16.1464 38.9177 16.735 40.6655 17.9714 42.1051C18.0522 42.2011 18.0522 42.2011 18.1346 42.299C19.254 43.555 20.7511 44.2448 22.3104 44.6572C22.4909 44.7071 22.6682 44.7696 22.8445 44.8341C22.8773 44.938 22.9102 45.0419 22.944 45.149C21.8654 47.0024 19.3095 48.2174 17.3813 48.7422C16.9502 48.8508 16.5172 48.945 16.0818 49.0327C15.9572 49.0585 15.8326 49.0843 15.7042 49.111C12.632 49.6243 9.33904 49.1486 6.31222 48.5606C6.04374 48.5091 5.77488 48.461 5.50573 48.4135C4.56149 48.2422 3.64298 48.0148 2.72418 47.7272C2.58264 47.6837 2.58264 47.6837 2.43823 47.6393C1.75627 47.4168 1.0279 47.1196 0.567322 46.5135C0.567322 46.375 0.567322 46.2364 0.567322 46.0937C0.766808 45.9089 0.766808 45.9089 1.04904 45.7214C1.15349 45.6508 1.25794 45.5803 1.36556 45.5076C1.48071 45.4318 1.59586 45.356 1.71102 45.2802C1.8286 45.2013 1.94609 45.1223 2.06347 45.043C2.24494 44.9206 2.42647 44.7982 2.60832 44.6764C3.21922 44.267 3.82036 43.843 4.42108 43.4171C5.15315 42.9001 5.88832 42.3896 6.63077 41.8894C7.30656 41.4317 7.9735 40.9609 8.62913 40.4716C8.9368 40.2428 9.24737 40.0235 9.56654 39.8131C10.4937 39.1931 11.4025 38.5435 12.3151 37.9C12.5037 37.767 12.6924 37.6341 12.8811 37.5012C13.2286 37.2564 13.576 37.0116 13.9234 36.7667C14.0008 36.7124 14.0781 36.6582 14.1578 36.6024C14.319 36.4882 14.4791 36.3722 14.6382 36.2548C14.7173 36.197 14.7964 36.1393 14.8778 36.0797C14.9483 36.0274 15.0188 35.9751 15.0915 35.9212C15.2862 35.8073 15.2862 35.8073 15.6218 35.8073Z" fill="#553920"/>
<path d="M27.5491 32.9659C27.8133 33.0521 28.0778 33.1375 28.3424 33.2226C28.4459 33.256 28.4459 33.256 28.5516 33.29C29.5521 33.61 30.5619 33.8964 31.571 34.1847C33.7299 34.8053 33.7299 34.8053 33.9824 35.0718C34.149 37.338 33.3847 39.4809 32.0613 41.2593C30.4296 43.2413 28.1851 44.3061 25.7279 44.5185C23.2637 44.6495 20.713 44.1182 18.8183 42.3557C18.6941 42.2313 18.6941 42.2313 18.5673 42.1043C18.4804 42.0181 18.3935 41.932 18.3039 41.8432C17.2158 40.6792 16.6459 39.201 16.6342 37.5712C16.631 37.4893 16.6277 37.4074 16.6243 37.323C16.6206 36.904 16.6408 36.7018 16.8739 36.3514C17.2498 36.0643 17.6268 35.8909 18.0576 35.7147C18.2291 35.6417 18.4004 35.5684 18.5716 35.4949C18.6559 35.4589 18.7402 35.4229 18.827 35.3858C19.1502 35.2442 19.4639 35.0873 19.7794 34.9274C20.8169 34.409 21.8818 33.9577 22.9432 33.4973C23.1114 33.4242 23.2796 33.3511 23.4478 33.278C23.6628 33.1845 23.8778 33.0911 24.0929 32.9981C24.3933 32.8681 24.6834 32.7356 24.9723 32.5785C25.8334 32.2637 26.7165 32.6897 27.5491 32.9659Z" fill="#553920"/>
<path d="M34.281 37.6956C34.721 37.7605 35.0786 37.941 35.4682 38.1548C35.6108 38.2315 35.7534 38.3082 35.8959 38.3848C35.9723 38.4261 36.0487 38.4674 36.1273 38.5099C36.5589 38.7422 36.9927 38.9696 37.4262 39.1978C37.6132 39.2965 37.8002 39.3952 37.9872 39.4939C38.0811 39.5434 38.175 39.593 38.2717 39.644C39.1277 40.0958 39.1277 40.0958 39.4098 40.2446C39.5947 40.3422 39.7797 40.4398 39.9646 40.5374C40.3742 40.7534 40.7836 40.9696 41.1927 41.1864C41.9846 41.6059 42.7798 42.017 43.5798 42.4189C44.3373 42.8009 45.0921 43.1873 45.8413 43.5872C46.268 43.8141 46.6985 44.0313 47.1312 44.2454C47.5229 44.4393 47.9136 44.6356 48.3037 44.8331C48.3723 44.8676 48.4409 44.9022 48.5115 44.9378C48.696 45.0319 48.8791 45.1292 49.062 45.2267C49.1638 45.2803 49.2656 45.3339 49.3705 45.3891C49.5966 45.5678 49.5966 45.5678 49.6879 45.8356C49.6961 46.0926 49.6961 46.0926 49.5655 46.3485C48.8766 47.0418 47.986 47.4134 47.1103 47.7721C47.0011 47.8173 46.8919 47.8625 46.7794 47.9091C44.8188 48.7134 42.8573 49.2808 40.7889 49.6876C40.7027 49.7048 40.6164 49.7219 40.5275 49.7396C39.4016 49.9521 38.2776 49.9959 37.1363 49.9957C36.9233 49.996 36.7104 49.9979 36.4975 49.9999C33.6801 50.0125 31.2703 49.1195 29.1095 47.2472C29.0435 47.1949 28.9775 47.1425 28.9095 47.0886C28.2884 46.5798 27.5684 45.7265 27.3194 44.938C27.7207 44.6606 28.1377 44.4887 28.5874 44.3214C30.8442 43.4519 32.5587 41.7443 33.6011 39.4659C33.7671 39.0751 33.8899 38.6719 34.0036 38.2614C34.0821 38.0104 34.0821 38.0104 34.281 37.6956Z" fill="#553920"/>
<path d="M37.2715 26.4477C39.8325 26.5552 42.1012 28.1624 43.9274 29.9279C44.0535 30.0496 44.0535 30.0496 44.1822 30.1739C44.7651 30.7634 45.2728 31.4208 45.7175 32.1321C45.7175 32.2014 45.7175 32.2706 45.7175 32.342C45.7831 32.342 45.8488 32.342 45.9164 32.342C46.022 32.4868 46.022 32.4868 46.1367 32.6934C46.2013 32.8096 46.2013 32.8096 46.2673 32.9282C46.3135 33.014 46.3598 33.0999 46.4074 33.1883C46.4798 33.3222 46.4798 33.3222 46.5536 33.4588C48.019 36.2121 48.8918 39.0449 49.5961 42.1036C49.6187 42.2004 49.6413 42.2973 49.6646 42.397C49.724 42.6531 49.7817 42.9096 49.8385 43.1664C49.863 43.2733 49.863 43.2733 49.888 43.3824C49.9992 43.9066 50.0103 44.4043 49.9939 44.9376C49.67 45.0486 49.611 45.0491 49.2756 44.9024C49.1477 44.8322 49.0205 44.7608 48.8937 44.6884C48.7504 44.6094 48.6069 44.5307 48.4633 44.4522C48.3882 44.4109 48.3132 44.3697 48.2358 44.3271C47.8548 44.1222 47.4665 43.9339 47.0787 43.7437C46.4456 43.4308 45.8241 43.1012 45.2078 42.7531C44.3999 42.2975 43.5789 41.8767 42.7516 41.4619C41.874 41.0205 41.0043 40.5636 40.1358 40.1028C39.1079 39.5576 38.0765 39.022 37.0373 38.5013C36.4723 38.218 35.9094 37.9307 35.3496 37.6361C35.2526 37.5853 35.2526 37.5853 35.1537 37.5334C34.8833 37.3903 34.6321 37.2428 34.38 37.0654C34.2821 36.2187 34.2585 35.223 34.7483 34.5094C34.8864 34.3296 35.0261 34.1511 35.1671 33.9739C36.522 32.2279 36.8903 30.0179 36.8663 27.8286C36.8638 27.5924 36.8617 27.3563 36.8601 27.1201C36.8589 27.0167 36.8578 26.9133 36.8566 26.8068C36.8716 26.4378 36.9145 26.4668 37.2715 26.4477Z" fill="#553920"/>
<path d="M24.7336 0.0136207C25.5861 -0.0163689 25.5861 -0.0163689 25.927 0.223548C25.927 0.292824 25.927 0.3621 25.927 0.433475C25.985 0.461619 26.0429 0.489762 26.1026 0.518758C26.3276 0.644957 26.5044 0.783871 26.6978 0.958293C26.7893 1.03948 26.7893 1.03948 26.8827 1.1223C27.021 1.27318 27.021 1.27318 27.021 1.48311C27.0781 1.50923 27.1351 1.53534 27.1939 1.56224C27.9872 2.02355 29.0234 3.20474 29.3084 4.1072C29.374 4.1072 29.4397 4.1072 29.5073 4.1072C29.6717 4.32456 29.8237 4.54152 29.9735 4.76978C30.0405 4.87056 30.0405 4.87056 30.1088 4.97338C30.4888 5.54857 30.8497 6.13417 31.198 6.73129C31.2673 6.84603 31.3367 6.96077 31.4081 7.07898C32.358 8.67196 33.0393 10.4014 33.5848 12.1894C33.6225 12.3106 33.6602 12.4319 33.699 12.5568C34.191 14.2434 34.3101 15.8693 34.3183 17.6213C34.3194 17.7454 34.3194 17.7454 34.3206 17.8721C34.3286 18.962 34.3096 20.0661 33.9826 21.1113C33.8842 21.1806 33.7857 21.2499 33.6843 21.3212C33.6025 21.2667 33.5207 21.2122 33.4364 21.156C31.1613 19.6559 28.9197 19.0052 26.2503 19.6484C26.0933 19.6887 25.9363 19.7293 25.7794 19.7701C25.6063 19.8105 25.6063 19.8105 25.4298 19.8517C25.3303 19.7468 25.3303 19.7468 25.3222 19.3354C25.3236 19.1462 25.3254 18.9569 25.3276 18.7677C25.329 18.5524 25.3304 18.3372 25.3317 18.1219C25.3326 18.0065 25.3334 17.891 25.3342 17.772C25.3488 15.4916 25.3148 13.2153 25.2433 10.9364C25.2394 10.8059 25.2355 10.6754 25.2314 10.541C25.1771 8.75737 25.0824 6.97957 24.9576 5.19993C24.8981 4.35032 24.8414 3.50047 24.7846 2.65065C24.771 2.44888 24.7572 2.24712 24.7432 2.04537C24.7225 1.74605 24.7025 1.44669 24.6827 1.14731C24.6763 1.05692 24.6699 0.966531 24.6633 0.873403C24.6228 0.247457 24.6228 0.247457 24.7336 0.0136207Z" fill="#553920"/>
<path d="M12.1032 26.4655C12.0987 26.5357 12.0941 26.6058 12.0894 26.6781C11.9247 29.3535 12.1493 31.9454 13.8825 34.0733C14.2059 34.4539 14.5454 34.816 14.8879 35.1775C14.8668 35.4364 14.8292 35.5583 14.6456 35.7343C14.5848 35.7738 14.524 35.8133 14.4613 35.854C14.3931 35.8993 14.3248 35.9446 14.2545 35.9913C14.1434 36.0626 14.1434 36.0626 14.0301 36.1353C13.8743 36.2384 13.7185 36.3415 13.5628 36.4448C13.445 36.5222 13.445 36.5222 13.3249 36.6012C12.9985 36.8178 12.678 37.0432 12.3581 37.2702C12.2364 37.3562 12.1146 37.4421 11.9929 37.5281C11.9308 37.572 11.8687 37.6159 11.8047 37.6612C11.4343 37.9229 11.0632 38.1836 10.6923 38.4445C10.552 38.5431 10.4118 38.6418 10.2715 38.7405C10.0374 38.9052 9.80328 39.07 9.56913 39.2346C9.01146 39.6269 8.45401 40.0195 7.89672 40.4124C7.53383 40.6681 7.17086 40.9238 6.80789 41.1795C6.6209 41.3112 6.43394 41.443 6.24701 41.5749C4.39592 42.8802 4.39592 42.8802 3.55652 43.438C3.29852 43.6098 3.04492 43.7881 2.79206 43.9682C2.69437 44.0368 2.59669 44.1054 2.49604 44.1761C2.31236 44.3051 2.12929 44.4349 1.94682 44.5658C1.71963 44.7286 1.49139 44.8897 1.26299 45.0506C1.15403 45.1296 1.15403 45.1296 1.04287 45.2102C0.93953 45.2824 0.93953 45.2824 0.834106 45.3561C0.742379 45.4214 0.742379 45.4214 0.648799 45.4881C0.418434 45.5907 0.300803 45.5503 0.0695705 45.4639C-0.096468 44.6437 0.0667321 43.9059 0.224964 43.0957C0.252695 42.9498 0.280414 42.8039 0.308123 42.658C1.15163 38.272 2.48125 34.1298 5.24106 30.664C5.31131 30.5665 5.38157 30.4689 5.45395 30.3684C5.51497 30.2928 5.57599 30.2172 5.63887 30.1392C5.70451 30.1392 5.77014 30.1392 5.83777 30.1392C5.83777 30.07 5.83777 30.0007 5.83777 29.9293C5.90341 29.9293 5.96905 29.9293 6.03667 29.9293C6.03667 29.86 6.03667 29.7908 6.03667 29.7194C7.37718 28.3783 8.9831 27.3963 10.7109 26.7345C10.7811 26.7073 10.8513 26.68 10.9237 26.652C11.3299 26.5033 11.6739 26.4365 12.1032 26.4655Z" fill="#553920"/>
<path d="M23.2418 21.1123C23.4407 21.3223 23.4407 21.3223 23.4482 21.5553C23.4401 21.6515 23.432 21.7476 23.4236 21.8467C23.4151 21.9542 23.4065 22.0617 23.3976 22.1724C23.3872 22.2881 23.3768 22.4037 23.3662 22.5228C23.3564 22.6413 23.3466 22.7597 23.3365 22.8818C23.2702 23.6687 23.193 24.4543 23.1106 25.2396C23.0566 25.766 23.0193 26.291 22.9932 26.8197C22.9578 27.5139 22.9125 28.2067 22.8565 28.8993C22.8499 28.9923 22.8433 29.0852 22.8365 29.181C22.7724 29.9348 22.6074 30.4641 22.0422 30.9658C21.9389 31.0596 21.9389 31.0596 21.8336 31.1552C21.6506 31.2938 21.6506 31.2938 21.4517 31.2938C21.4517 31.3631 21.4517 31.4324 21.4517 31.5037C21.2796 31.6673 21.2796 31.6673 21.0353 31.8646C20.613 32.2121 20.2 32.5679 19.7921 32.9339C19.737 32.9832 19.6819 33.0324 19.6251 33.0832C19.33 33.3475 19.0382 33.6151 18.7479 33.8851C18.4682 34.1278 18.4682 34.1278 18.2692 34.1278C18.2692 34.1971 18.2692 34.2664 18.2692 34.3378C18.0979 34.4968 18.0979 34.4968 17.8652 34.6789C17.5607 34.9191 17.2774 35.1645 17.0012 35.4399C16.7141 35.7004 16.7141 35.7004 16.4232 35.7154C16.1177 35.5666 15.8579 35.3839 15.584 35.1775C15.4876 35.1169 15.3912 35.0562 15.2919 34.9938C13.8157 33.8491 12.7891 31.8091 12.501 29.9293C12.3798 28.4251 12.4275 27.0198 12.9983 25.6258C13.0239 25.5619 13.0494 25.498 13.0758 25.4322C13.4536 24.5043 13.9449 23.7439 14.5895 23.0017C14.6636 22.9162 14.7377 22.8307 14.8141 22.7426C16.951 20.3851 20.43 19.8566 23.2418 21.1123Z" fill="#553920"/>
<path d="M33.3859 21.6372C33.3859 21.7065 33.3859 21.7757 33.3859 21.8471C33.4695 21.883 33.4695 21.883 33.5549 21.9197C35.0218 22.8002 35.8446 24.9553 36.2918 26.5709C36.8222 28.7177 36.3166 31.1362 35.2926 33.0315C35.0125 33.5201 34.6665 33.9385 34.281 34.3378C33.816 34.1751 33.4727 33.905 33.0875 33.5965C32.9557 33.4926 32.8237 33.3889 32.6917 33.2853C32.5922 33.2072 32.5922 33.2072 32.4907 33.1275C32.1858 32.8909 31.876 32.6623 31.5647 32.4353C31.4605 32.3593 31.3562 32.2832 31.2488 32.2049C31.013 32.0305 31.013 32.0305 30.8001 31.9236C30.8001 31.8543 30.8001 31.7851 30.8001 31.7137C30.7327 31.6886 30.6653 31.6636 30.5958 31.6378C30.2383 31.4742 29.9207 31.2601 29.5943 31.038C28.818 30.5172 28.0259 30.0289 27.228 29.5459C27.157 29.5021 27.086 29.4583 27.0129 29.4131C26.8115 29.2892 26.8115 29.2892 26.5463 29.1687C26.1878 28.8707 26.0579 28.4633 25.8835 28.0268C25.8449 27.9329 25.8063 27.8389 25.7665 27.7421C23.6673 22.5613 23.6673 22.5613 24.1369 21.1124C26.3581 18.6154 31.2001 19.8396 33.3859 21.6372Z" fill="#553920"/>
<path d="M23.7391 23.8403C23.8376 23.8403 23.936 23.8403 24.0375 23.8403C24.068 23.9318 24.0985 24.0232 24.13 24.1174C24.2457 24.4635 24.3616 24.8096 24.4775 25.1556C24.5273 25.304 24.5769 25.4525 24.6265 25.6011C25.3488 28.2346 25.3488 28.2346 27.1205 30.0332C28.1505 30.6056 29.1286 31.2533 30.104 31.9225C30.2369 32.0136 30.2369 32.0136 30.3726 32.1066C30.6363 32.2885 30.8987 32.4725 31.1607 32.6573C31.2426 32.7139 31.3245 32.7705 31.4089 32.8289C31.4842 32.8827 31.5594 32.9364 31.637 32.9918C31.7036 33.0388 31.7702 33.0857 31.8388 33.1341C32.0237 33.3168 32.0557 33.4464 32.0931 33.7069C31.3891 33.6465 30.7499 33.489 30.0729 33.2805C29.9668 33.2486 29.8607 33.2168 29.7513 33.1839C29.1525 33.0037 28.5551 32.8185 27.958 32.6319C27.8338 32.5934 27.7097 32.555 27.5817 32.5154C27.3412 32.4409 27.101 32.3654 26.861 32.2889C25.8458 31.9748 25.2097 31.9334 24.2426 32.408C24.0605 32.4938 23.8782 32.5795 23.696 32.6651C23.5945 32.7131 23.4929 32.7612 23.3884 32.8108C22.7704 33.0995 22.1474 33.3759 21.5248 33.6536C21.3051 33.7517 21.0855 33.85 20.8659 33.9485C20.7286 34.0099 20.5914 34.0714 20.4541 34.1329C20.3915 34.161 20.3289 34.189 20.2644 34.218C20.0968 34.2929 19.9289 34.3673 19.761 34.4417C19.6694 34.4835 19.5778 34.5253 19.4835 34.5684C19.2316 34.6638 19.1134 34.6433 18.866 34.5466C19.0159 34.1516 19.2289 33.9604 19.5435 33.7004C19.6413 33.6182 19.7391 33.5361 19.8399 33.4515C19.8919 33.4079 19.9438 33.3644 19.9974 33.3195C20.2755 33.0828 20.5461 32.8367 20.8177 32.5917C21.246 32.2067 21.6793 31.8323 22.1285 31.4744C22.2005 31.4144 22.2725 31.3545 22.3468 31.2927C22.4036 31.2613 22.4605 31.2299 22.519 31.1976C22.8967 30.9477 23.0242 30.7424 23.1329 30.2807C23.2036 29.7872 23.2379 29.2907 23.2729 28.7933C23.2879 28.6136 23.3032 28.4339 23.3187 28.2542C23.3563 27.81 23.3904 27.3655 23.4227 26.9208C23.4492 26.5588 23.4773 26.1969 23.5052 25.8351C23.5317 25.4899 23.5576 25.1449 23.5805 24.7994C23.5871 24.7021 23.5937 24.6048 23.6004 24.5046C23.6057 24.4211 23.611 24.3377 23.6164 24.2517C23.6397 24.0503 23.6397 24.0503 23.7391 23.8403Z" fill="#553920"/>
<path d="M6.33503 42.209C6.26666 42.4649 6.26666 42.4649 6.13613 42.7338C5.87507 42.8191 5.87507 42.8191 5.63887 42.8388C5.60605 42.9427 5.57323 43.0466 5.53942 43.1537C5.44096 43.1537 5.3425 43.1537 5.24106 43.1537C5.24106 43.223 5.24106 43.2922 5.24106 43.3636C5.07697 43.3983 4.91287 43.4329 4.7438 43.4686C4.71098 43.5725 4.67816 43.6764 4.64435 43.7835C4.54589 43.7835 4.44744 43.7835 4.346 43.7835C4.346 43.8527 4.346 43.922 4.346 43.9934C4.1819 44.028 4.01781 44.0627 3.84874 44.0984C3.81592 44.2023 3.7831 44.3062 3.74929 44.4133C3.55427 44.5818 3.55427 44.5818 3.31418 44.7478C3.23547 44.8034 3.15675 44.859 3.07565 44.9163C2.85422 45.043 2.85422 45.043 2.55586 45.043C2.55586 45.1123 2.55586 45.1816 2.55586 45.253C2.39177 45.2876 2.22767 45.3222 2.0586 45.3579C2.02579 45.4618 1.99297 45.5658 1.95915 45.6728C1.67323 45.8565 1.67323 45.8565 1.36244 45.9877C1.26399 45.9531 1.16553 45.9184 1.06409 45.8827C1.39309 45.5004 1.77163 45.2365 2.18292 44.9643C2.93306 44.4602 3.67504 43.9442 4.41437 43.4227C4.51651 43.3506 4.61865 43.2786 4.72389 43.2044C4.8211 43.1359 4.91831 43.0673 5.01846 42.9967C5.10953 42.9325 5.2006 42.8684 5.29443 42.8024C5.44192 42.6979 5.58896 42.5927 5.73507 42.4861C6.11607 42.209 6.11607 42.209 6.33503 42.209Z" fill="#553920"/>
<path d="M22.3468 31.8176C21.3156 32.7623 21.3156 32.7623 21.0539 32.7623C21.0211 32.8662 20.9883 32.9701 20.9545 33.0772C20.856 33.1118 20.7575 33.1464 20.6561 33.1821C20.6233 33.2514 20.5905 33.3207 20.5566 33.3921C20.4766 33.4419 20.3967 33.4916 20.3142 33.5429C20.036 33.6961 20.036 33.6961 19.8605 34.0218C19.762 34.0565 19.6636 34.0911 19.5621 34.1268C19.3932 34.389 19.3932 34.389 19.2638 34.6516C19.1325 34.617 19.0012 34.5823 18.866 34.5467C19.0159 34.1516 19.2289 33.9605 19.5435 33.7004C19.8662 33.4302 20.1863 33.1597 20.4976 32.875C20.5822 32.7978 20.5822 32.7978 20.6686 32.719C20.7778 32.6191 20.8866 32.5187 20.995 32.4178C21.8477 31.642 21.8477 31.642 22.3468 31.8176Z" fill="#553920"/>
<path d="M24.3358 25.5198C24.6341 25.6247 24.6341 25.6247 24.7502 25.8646C24.7861 25.9682 24.822 26.0719 24.8591 26.1787C24.8985 26.291 24.9379 26.4034 24.9785 26.5192C25.0388 26.6967 25.0388 26.6967 25.1003 26.8777C25.1417 26.9957 25.183 27.1136 25.2256 27.2351C25.5292 28.1101 25.5292 28.1101 25.5292 28.3538C25.3979 28.3192 25.2666 28.2845 25.1314 28.2488C25.1314 28.1103 25.1314 27.9717 25.1314 27.829C25.0658 27.829 25.0001 27.829 24.9325 27.829C24.7978 27.5446 24.8266 27.3032 24.833 26.9893C24.7674 26.9546 24.7018 26.92 24.6341 26.8843C24.5347 26.7793 24.5347 26.7793 24.5285 26.4579C24.5305 26.3561 24.5326 26.2544 24.5347 26.1496C24.469 26.1496 24.4034 26.1496 24.3358 26.1496C24.2978 25.9757 24.2648 25.8006 24.2363 25.6247C24.2691 25.5901 24.302 25.5555 24.3358 25.5198Z" fill="#553920"/>
<path d="M26.3248 0.748352C26.7044 0.938642 26.8425 1.09376 27.021 1.4831C27.0809 1.51462 27.1407 1.54615 27.2024 1.57863C27.442 1.70531 27.6006 1.84983 27.7917 2.04728C27.8528 2.1087 27.9138 2.17013 27.9767 2.23342C28.115 2.42777 28.115 2.42777 28.115 2.84762C28.0165 2.81299 27.918 2.77835 27.8166 2.74266C27.8166 2.67338 27.8166 2.60411 27.8166 2.53273C27.7407 2.50459 27.6648 2.47645 27.5866 2.44745C27.3275 2.32663 27.1957 2.23836 27.021 2.00792C26.9882 1.904 26.9553 1.80009 26.9215 1.69302C26.8231 1.62375 26.7246 1.55447 26.6232 1.4831C26.6232 1.41382 26.6232 1.34455 26.6232 1.27317C26.5247 1.23853 26.4263 1.20389 26.3248 1.16821C26.3248 1.09893 26.3248 1.02965 26.3248 0.958279C26.2592 0.923641 26.1935 0.889003 26.1259 0.853316C26.1916 0.818678 26.2572 0.78404 26.3248 0.748352Z" fill="#553920"/>
<path d="M34.4799 35.1764C34.5455 35.1764 34.6112 35.1764 34.6788 35.1764C34.7988 35.5562 34.789 35.9033 34.7845 36.2982C34.784 36.3719 34.7836 36.4455 34.7831 36.5214C34.7819 36.7029 34.7801 36.8843 34.7782 37.0657C34.9095 37.0657 35.0408 37.0657 35.1761 37.0657C35.1432 37.2043 35.1104 37.3428 35.0766 37.4856C34.732 37.2778 34.732 37.2778 34.3804 37.0657C34.3777 36.8296 34.3758 36.5934 34.3742 36.3572C34.3731 36.2257 34.3719 36.0942 34.3707 35.9587C34.3784 35.6713 34.3976 35.4473 34.4799 35.1764Z" fill="#553920"/>
<path d="M33.7837 35.3864C33.8493 35.3864 33.915 35.3864 33.9826 35.3864C34.0413 36.4231 33.8966 37.2405 33.5848 38.2204C33.4863 38.1511 33.3879 38.0818 33.2864 38.0105C33.3147 37.8267 33.3439 37.643 33.3735 37.4594C33.3896 37.3571 33.4058 37.2548 33.4224 37.1494C33.4853 36.8559 33.4853 36.8559 33.5879 36.6427C33.7073 36.3865 33.7252 36.1686 33.7464 35.885C33.7576 35.7445 33.7576 35.7445 33.7689 35.6012C33.7738 35.5303 33.7787 35.4594 33.7837 35.3864Z" fill="#553920"/>
<path d="M46.4141 43.9934C46.8853 44.1449 47.308 44.3473 47.7443 44.5838C47.808 44.6179 47.8717 44.652 47.9373 44.6871C48.0928 44.7704 48.248 44.8542 48.4031 44.9381C48.3703 45.042 48.3375 45.1459 48.3037 45.2529C48.2052 45.2529 48.1068 45.2529 48.0053 45.2529C48.0053 45.1837 48.0053 45.1144 48.0053 45.043C47.9007 45.0268 47.9007 45.0268 47.794 45.0102C47.4691 44.9282 47.205 44.7889 46.9113 44.6232C46.9113 44.5539 46.9113 44.4846 46.9113 44.4132C46.616 44.3613 46.616 44.3613 46.3146 44.3083C46.3475 44.2044 46.3803 44.1004 46.4141 43.9934Z" fill="#553920"/>
<path d="M26.8221 20.0617C26.7599 20.265 26.7599 20.265 26.6232 20.4815C26.3373 20.5471 26.3373 20.5471 26.0265 20.5865C25.7684 20.7032 25.5659 20.8406 25.3303 21.0063C25.0631 21.0195 25.0631 21.0195 24.8331 21.0063C24.8373 20.8145 24.8373 20.8145 24.9325 20.5865C25.1796 20.4669 25.4016 20.3789 25.6598 20.2978C25.7271 20.2747 25.7945 20.2516 25.8639 20.2277C26.2016 20.1155 26.4649 20.0617 26.8221 20.0617Z" fill="#553920"/>
<path d="M2.65532 44.6231C2.72095 44.6577 2.78659 44.6924 2.85422 44.7281C2.8214 44.832 2.78858 44.9359 2.75477 45.043C2.68913 45.043 2.62349 45.043 2.55586 45.043C2.55586 45.1122 2.55586 45.1815 2.55586 45.2529C2.39177 45.2875 2.22767 45.3222 2.0586 45.3579C2.02579 45.4618 1.99297 45.5657 1.95915 45.6727C1.67323 45.8564 1.67323 45.8564 1.36244 45.9876C1.26399 45.953 1.16553 45.9184 1.06409 45.8827C1.37259 45.5318 1.70413 45.2778 2.08347 45.0167C2.19064 44.9426 2.29782 44.8684 2.40824 44.792C2.48977 44.7363 2.57131 44.6805 2.65532 44.6231Z" fill="#553920"/>
<path d="M23.7391 23.8403C23.8376 23.8403 23.936 23.8403 24.0375 23.8403C24.1031 24.1521 24.1687 24.4638 24.2364 24.785C23.941 25.0448 23.941 25.0448 23.6397 25.3098C23.637 25.1043 23.635 24.8987 23.6334 24.6932C23.6323 24.5787 23.6311 24.4642 23.6299 24.3463C23.6397 24.0503 23.6397 24.0503 23.7391 23.8403Z" fill="#553920"/>
<path d="M22.2473 1.37814C22.313 1.41278 22.3786 1.44742 22.4462 1.48311C22.1983 2.05882 21.738 2.39761 21.2528 2.74267C21.1544 2.77731 21.0559 2.81195 20.9545 2.84763C21.0938 2.34894 21.3291 2.13315 21.7128 1.81768C21.8125 1.73474 21.9123 1.65179 22.015 1.56634C22.13 1.47318 22.13 1.47318 22.2473 1.37814Z" fill="#553920"/>
<path d="M21.5511 34.1268C21.6168 34.1614 21.6824 34.1961 21.7501 34.2318C21.7829 34.3357 21.8157 34.4396 21.8495 34.5467C21.587 34.5813 21.3244 34.6159 21.0539 34.6516C21.0539 34.7209 21.0539 34.7902 21.0539 34.8615C20.8242 34.8962 20.5944 34.9308 20.3577 34.9665C20.3577 34.8626 20.3577 34.7587 20.3577 34.6516C20.5521 34.561 20.7469 34.4715 20.942 34.3826C21.0505 34.3327 21.1589 34.2828 21.2707 34.2314C21.3632 34.1969 21.4558 34.1623 21.5511 34.1268Z" fill="#553920"/>
<path d="M31.5958 34.3367C32.274 34.3822 32.7809 34.537 33.3859 34.8615C33.3859 34.8962 33.3859 34.9308 33.3859 34.9665C33.1233 34.9665 32.8608 34.9665 32.5903 34.9665C32.5903 34.8972 32.5903 34.828 32.5903 34.7566C32.2621 34.7219 31.9339 34.6873 31.5958 34.6516C31.5958 34.5477 31.5958 34.4438 31.5958 34.3367Z" fill="#553920"/>
<path d="M22.0484 19.8517C22.1056 19.8673 22.1628 19.8829 22.2217 19.8989C22.3644 19.9356 22.5079 19.9691 22.6521 19.9981C23.2091 20.1177 23.2091 20.1177 23.391 20.3897C23.4074 20.4546 23.4238 20.5196 23.4408 20.5865C22.9178 20.5157 22.4436 20.3511 21.949 20.1666C21.9818 20.0627 22.0146 19.9588 22.0484 19.8517Z" fill="#553920"/>
<path d="M21.6814 44.5444C22.0158 44.6162 22.3248 44.7095 22.6449 44.833C22.6449 44.9023 22.6449 44.9716 22.6449 45.043C22.5198 45.0451 22.3946 45.0473 22.2657 45.0495C22.1953 45.0507 22.125 45.052 22.0524 45.0532C21.8493 45.043 21.8493 45.043 21.5509 44.938C21.5509 44.8687 21.5509 44.7995 21.5509 44.7281C21.3868 44.7281 21.2227 44.7281 21.0536 44.7281C21.352 44.5181 21.352 44.5181 21.6814 44.5444Z" fill="#553920"/>
<path d="M32.9881 38.6402C33.0866 38.6402 33.185 38.6402 33.2865 38.6402C33.2481 39.2873 33.0407 39.6884 32.6897 40.2147C32.6241 40.18 32.5585 40.1454 32.4908 40.1097C32.5565 39.9019 32.6221 39.6941 32.6897 39.4799C32.7554 39.4799 32.821 39.4799 32.8887 39.4799C32.8866 39.3998 32.8845 39.3197 32.8824 39.2372C32.8887 38.9551 32.8887 38.9551 32.9881 38.6402Z" fill="#553920"/>
<path d="M16.3796 21.4262C16.4453 21.4608 16.5109 21.4955 16.5786 21.5312C16.5457 21.6697 16.5129 21.8083 16.4791 21.951C16.315 21.9857 16.1509 22.0203 15.9818 22.056C15.949 22.1599 15.9162 22.2638 15.8824 22.3709C15.7183 22.4055 15.5542 22.4402 15.3851 22.4758C15.4194 22.1731 15.463 22.0748 15.6901 21.8772C15.772 21.8236 15.8539 21.7701 15.9383 21.7149C16.0205 21.6602 16.1027 21.6055 16.1873 21.5492C16.2508 21.5086 16.3143 21.468 16.3796 21.4262Z" fill="#553920"/>
<path d="M23.1424 30.558C23.1424 30.7679 23.1424 30.9779 23.1424 31.1878C23.0439 31.1878 22.9454 31.1878 22.844 31.1878C22.8112 31.2917 22.7784 31.3956 22.7446 31.5027C22.6461 31.572 22.5476 31.6412 22.4462 31.7126C22.3149 31.678 22.1836 31.6433 22.0484 31.6077C22.5899 31.0881 22.5899 31.0881 23.1424 30.558ZM21.8495 31.7126C22.0484 31.8176 22.0484 31.8176 22.0484 31.8176L21.8495 31.7126Z" fill="#553920"/>
<path d="M21.6506 20.6914C22.2136 20.7436 22.6329 20.8536 23.1424 21.1113C23.1424 21.1459 23.1424 21.1806 23.1424 21.2163C22.9455 21.2509 22.7486 21.2855 22.5457 21.3212C22.5457 21.2519 22.5457 21.1827 22.5457 21.1113C22.3488 21.1113 22.1519 21.1113 21.949 21.1113C21.949 21.042 21.949 20.9727 21.949 20.9014C21.8505 20.9014 21.7521 20.9014 21.6506 20.9014C21.6506 20.8321 21.6506 20.7628 21.6506 20.6914Z" fill="#553920"/>
<path d="M23.5402 33.3921C23.5402 33.496 23.5402 33.5999 23.5402 33.707C23.4089 33.707 23.2776 33.707 23.1424 33.707C23.1424 33.7762 23.1424 33.8455 23.1424 33.9169C22.8798 33.9515 22.6172 33.9862 22.3467 34.0218C22.3467 33.9526 22.3467 33.8833 22.3467 33.8119C22.4705 33.7409 22.595 33.6712 22.7197 33.602C22.7889 33.563 22.8581 33.5241 22.9295 33.4839C23.1424 33.3921 23.1424 33.3921 23.5402 33.3921Z" fill="#553920"/>
<path d="M3.1526 43.5746C2.84169 43.9308 2.59911 44.163 2.15808 44.3093C2.21902 43.9984 2.28277 43.8495 2.45644 43.5746C2.72164 43.4346 2.87083 43.5041 3.1526 43.5746Z" fill="#553920"/>
<path d="M47.9059 46.9324C47.9715 47.0363 48.0371 47.1402 48.1048 47.2473C47.4928 47.6736 47.4928 47.6736 47.0667 47.6409C46.9826 47.6149 46.8985 47.5889 46.8119 47.5622C46.8632 47.5362 46.9144 47.5102 46.9673 47.4834C47.2865 47.3107 47.5952 47.1216 47.9059 46.9324Z" fill="#553920"/>
<path d="M13.595 36.9608C13.6606 36.9955 13.7263 37.0301 13.7939 37.0658C13.6145 37.4084 13.5121 37.579 13.1972 37.8005C12.9796 37.7612 12.9796 37.7612 12.7994 37.6956C13.0557 37.4177 13.2883 37.1766 13.595 36.9608Z" fill="#553920"/>
<path d="M29.01 44.4132C28.9116 44.4651 28.9116 44.4651 28.8111 44.5181C28.8111 44.5874 28.8111 44.6567 28.8111 44.7281C28.435 44.9209 28.2198 44.9546 27.8166 44.833C27.8166 44.7638 27.8166 44.6945 27.8166 44.6231C28.232 44.4561 28.5656 44.3908 29.01 44.4132Z" fill="#553920"/>
<path d="M29.6067 43.8884C29.6724 43.9231 29.738 43.9577 29.8056 43.9934C29.7062 44.3083 29.7062 44.3083 29.5007 44.4309C29.4188 44.4662 29.3368 44.5015 29.2524 44.5379C29.1703 44.574 29.0881 44.6101 29.0034 44.6474C28.94 44.674 28.8765 44.7007 28.8111 44.7281C28.7783 44.5896 28.7455 44.451 28.7117 44.3083C28.8563 44.2351 29.0014 44.1632 29.1468 44.0918C29.2679 44.0315 29.2679 44.0315 29.3915 43.97C29.4625 43.9431 29.5336 43.9162 29.6067 43.8884Z" fill="#553920"/>
<path d="M34.4799 35.1764C34.5455 35.1764 34.6112 35.1764 34.6788 35.1764C34.6971 36.1641 34.6971 36.1641 34.5793 36.6459C34.3344 36.2581 34.3576 36.0546 34.3804 35.5962C34.4301 35.3404 34.4301 35.3404 34.4799 35.1764Z" fill="#553920"/>
<path d="M31.3969 33.0771C31.8693 33.1559 31.8693 33.1559 32.093 33.392C32.093 33.496 32.093 33.5999 32.093 33.7069C31.9946 33.7069 31.8961 33.7069 31.7947 33.7069C31.7619 33.6377 31.729 33.5684 31.6952 33.497C31.4939 33.4286 31.4939 33.4286 31.2974 33.392C31.3302 33.2881 31.3631 33.1842 31.3969 33.0771Z" fill="#553920"/>
<path d="M30.7007 33.9168C30.7335 33.9861 30.7663 34.0554 30.8001 34.1268C30.5704 34.1614 30.3407 34.196 30.104 34.2317C30.104 34.1971 30.104 34.1624 30.104 34.1268C29.8086 34.0748 29.8086 34.0748 29.5073 34.0218C29.9058 33.7239 30.2459 33.8224 30.7007 33.9168Z" fill="#553920"/>
<path d="M24.7336 26.5694C24.7992 26.5694 24.8649 26.5694 24.9325 26.5694C25.092 26.9376 25.1533 27.2142 25.1314 27.619C25.033 27.5844 24.9345 27.5498 24.8331 27.5141C24.8331 27.3409 24.8331 27.1677 24.8331 26.9893C24.7674 26.9546 24.7018 26.92 24.6342 26.8843C24.667 26.7804 24.6998 26.6765 24.7336 26.5694Z" fill="#553920"/>
<path d="M34.6788 33.1821C34.7773 33.1821 34.8757 33.1821 34.9772 33.1821C34.9423 33.5224 34.9213 33.6665 34.6726 33.8972C34.609 33.9383 34.5454 33.9794 34.4799 34.0218C34.4799 33.9525 34.4799 33.8833 34.4799 33.8119C34.4143 33.7772 34.3486 33.7426 34.281 33.7069C34.4123 33.6376 34.5436 33.5684 34.6788 33.497C34.6788 33.3931 34.6788 33.2892 34.6788 33.1821Z" fill="#553920"/>
<path d="M30.3029 43.4685C30.4342 43.5032 30.5655 43.5378 30.7007 43.5735C30.6679 43.6428 30.6351 43.7121 30.6013 43.7834C30.5028 43.7834 30.4044 43.7834 30.3029 43.7834C30.3029 43.8527 30.3029 43.922 30.3029 43.9934C30.1388 44.028 29.9747 44.0626 29.8057 44.0983C29.9698 43.8905 30.1339 43.6827 30.3029 43.4685Z" fill="#553920"/>
<path d="M37.5629 39.375C37.7638 39.4382 37.9628 39.5086 38.1596 39.5849C38.1924 39.6542 38.2252 39.7235 38.2591 39.7949C38.2262 39.8641 38.1934 39.9334 38.1596 40.0048C38.0611 39.9701 37.9627 39.9355 37.8612 39.8998C37.8612 39.8305 37.8612 39.7613 37.8612 39.6899C37.73 39.6553 37.5987 39.6206 37.4634 39.5849C37.4963 39.5157 37.5291 39.4464 37.5629 39.375Z" fill="#553920"/>
<path d="M4.34598 32.3424C4.32733 32.5392 4.32733 32.5392 4.24653 32.7623C3.99168 32.8935 3.99168 32.8935 3.74927 32.9722C3.96347 32.3424 3.96347 32.3424 4.34598 32.3424Z" fill="#553920"/>
<path d="M23.8386 24.0503C23.937 24.0849 24.0355 24.1196 24.1369 24.1553C24.1697 24.3631 24.2026 24.5709 24.2364 24.785C24.1379 24.8197 24.0395 24.8543 23.938 24.89C23.9052 24.6129 23.8724 24.3358 23.8386 24.0503Z" fill="#553920"/>
<path d="M31.2974 20.4815C31.5272 20.5508 31.7569 20.6201 31.9936 20.6914C31.9936 20.7607 31.9936 20.83 31.9936 20.9014C31.8196 20.9735 31.8196 20.9735 31.5958 21.0063C31.372 20.8554 31.372 20.8554 31.198 20.6914C31.2308 20.6222 31.2636 20.5529 31.2974 20.4815Z" fill="#553920"/>
<path d="M29.9051 31.9225C30.1513 32.0265 30.1513 32.0265 30.4024 32.1325C30.3696 32.2364 30.3367 32.3403 30.3029 32.4474C30.1388 32.4127 29.9747 32.3781 29.8057 32.3424C29.8385 32.2038 29.8713 32.0653 29.9051 31.9225Z" fill="#553920"/>
<path d="M40.6459 27.5141C40.892 27.618 40.892 27.618 41.1432 27.724C41.1432 27.8279 41.1432 27.9318 41.1432 28.0389C40.8478 27.9869 40.8478 27.9869 40.5464 27.9339C40.5793 27.7954 40.6121 27.6568 40.6459 27.5141Z" fill="#553920"/>
<path d="M48.5025 45.043C48.7487 45.1469 48.7487 45.1469 48.9998 45.253C48.967 45.3569 48.9341 45.4608 48.9003 45.5678C48.8347 45.5678 48.7691 45.5678 48.7014 45.5678C48.7014 45.4986 48.7014 45.4293 48.7014 45.3579C48.603 45.3579 48.5045 45.3579 48.4031 45.3579C48.4359 45.254 48.4687 45.1501 48.5025 45.043Z" fill="#553920"/>
<path d="M34.281 37.6956C34.3795 37.6956 34.4779 37.6956 34.5794 37.6956C34.5465 37.8687 34.5137 38.0419 34.4799 38.2204C34.3486 38.255 34.2173 38.2897 34.0821 38.3253C34.1691 37.8136 34.1691 37.8136 34.281 37.6956Z" fill="#553920"/>
<path d="M23.938 0.853333C24.0364 0.887971 24.1349 0.922609 24.2363 0.958296C24.1707 1.30468 24.1051 1.65106 24.0374 2.00793C24.0046 2.00793 23.9718 2.00793 23.938 2.00793C23.938 1.62691 23.938 1.2459 23.938 0.853333Z" fill="#553920"/>
<path d="M17.8714 20.7964C18.1325 20.7767 18.1325 20.7767 18.3687 20.7964C18.3687 20.9003 18.3687 21.0042 18.3687 21.1113C18.139 21.1113 17.9092 21.1113 17.6725 21.1113C17.7382 21.0074 17.8038 20.9035 17.8714 20.7964Z" fill="#553920"/>
<path d="M20.3577 20.4815C20.3577 20.5854 20.3577 20.6893 20.3577 20.7964C20.128 20.7964 19.8983 20.7964 19.6616 20.7964C19.9102 20.4815 19.9338 20.4815 20.3577 20.4815Z" fill="#553920"/>
</svg>
