<svg width="42" height="50" viewBox="0 0 42 50" fill="none" xmlns="http://www.w3.org/2000/svg">
<path d="M41.2535 5.39837C41.1826 5.26039 41.1826 5.26039 41.068 5.20203C40.8784 5.15368 40.7301 5.16426 40.5379 5.18C40.2776 5.19875 40.0269 5.20697 39.7646 5.19299C39.4531 5.18219 39.2025 5.2374 38.915 5.33245C38.8691 5.34625 38.8231 5.36004 38.7758 5.37424C38.5287 5.45077 38.5287 5.45077 38.4324 5.49332C38.4205 5.52601 38.4086 5.5587 38.3964 5.59238C38.3611 5.57953 38.3258 5.56668 38.2894 5.55344C37.9662 5.77572 37.9662 5.77572 37.8941 5.97391C37.8946 6.13887 37.8946 6.13887 37.9486 6.32328C38.0077 6.54091 37.9898 6.67054 37.9277 6.88004C37.8369 7.02187 37.8369 7.02187 37.6951 7.01974C37.6396 7.10206 37.6396 7.10206 37.5784 7.21562C37.4613 7.4098 37.3309 7.56048 37.1628 7.71656C37.1134 7.76253 37.064 7.8085 37.0132 7.85587C36.9597 7.90499 36.9062 7.95405 36.8526 8.00307C36.8125 8.03986 36.8125 8.03986 36.7715 8.07738C36.5996 8.23475 36.4269 8.39147 36.2541 8.54804C35.7148 9.03691 35.1807 9.52972 34.6583 10.0347C33.7029 10.9711 33.7029 10.9711 32.4036 11.3207C32.208 11.3082 32.0193 11.2833 31.8264 11.2442C31.3946 11.1568 30.9923 11.154 30.6091 11.3555C30.2782 11.5754 30.1394 11.7773 30.0118 12.1419C29.9985 12.1791 29.9852 12.2163 29.9715 12.2547C29.9389 12.3464 29.9065 12.4382 29.8743 12.53C29.8364 12.5211 29.7986 12.5122 29.7596 12.503C28.9398 12.3281 28.3647 12.5028 27.6822 12.8861C27.5379 12.9697 27.5379 12.9697 27.391 13.0284C27.3672 13.0937 27.3434 13.1591 27.3189 13.2265C27.3475 13.2408 27.3762 13.2552 27.4056 13.2699C27.5379 13.3367 27.6695 13.4044 27.8012 13.4721C27.8462 13.4946 27.8912 13.5172 27.9376 13.5404C28.2453 13.6999 28.526 13.8716 28.7439 14.1377C28.8181 14.3839 28.7149 14.5595 28.6089 14.7792C28.5804 14.8391 28.5518 14.8991 28.5224 14.9609C28.489 15.0288 28.489 15.0288 28.4549 15.0982C28.3166 15.0185 28.19 14.9396 28.0631 14.8434C28.0345 14.7208 28.0345 14.7208 28.0282 14.6064C27.9752 14.5871 27.9223 14.5678 27.8677 14.548C27.6831 14.9548 27.7195 15.2564 27.895 15.6796C27.9254 15.7472 27.9562 15.8146 27.988 15.8817C27.923 15.9506 27.8579 16.0195 27.7909 16.0904C27.6261 16.0489 27.4613 16.0075 27.2915 15.9647C27.1535 16.1219 27.0308 16.2856 26.9123 16.4564C26.0536 17.6935 25.073 18.8418 24.0341 19.9448C23.9092 20.0785 23.7868 20.2141 23.664 20.3497C23.5017 20.5271 23.3357 20.6921 23.152 20.8495C22.9549 21.0257 22.7771 21.2201 22.595 21.4099C22.2521 21.7647 21.9037 22.1098 21.5402 22.4459C21.389 22.5871 21.2402 22.7305 21.091 22.8735C20.5816 23.3621 20.0647 23.843 19.544 24.3209C19.3196 24.5274 19.0968 24.7354 18.874 24.9435C18.6664 25.137 18.4556 25.3268 18.2425 25.5149C18.187 25.5643 18.1315 25.6136 18.076 25.6629C18.0485 25.6873 18.0211 25.7117 17.9928 25.7369C17.933 25.79 17.8733 25.8431 17.8136 25.8962C17.6581 26.0345 17.5025 26.1726 17.3463 26.3103C17.0437 26.5775 16.7454 26.8477 16.4527 27.1245C16.1525 27.408 15.8408 27.6778 15.524 27.9447C15.1704 28.2429 14.8255 28.5493 14.4817 28.8574C14.4034 28.9271 14.3251 28.9967 14.2467 29.0663C14.0145 29.2727 14.0145 29.2727 13.7822 29.4791C13.737 29.5193 13.6918 29.5594 13.6452 29.6008C13.5403 29.6941 13.4356 29.7876 13.3311 29.8813C13.0202 30.1594 12.7064 30.4338 12.3865 30.7028C11.8841 31.1257 11.3948 31.5596 10.9192 32.0091C10.6568 32.257 10.3862 32.4942 10.1088 32.7272C9.7759 33.0069 9.4548 33.2955 9.1391 33.5923C8.92603 33.7924 8.70956 33.9883 8.48919 34.1814C8.15976 34.4706 7.84568 34.7732 7.53197 35.0775C7.31655 35.2859 7.09817 35.4885 6.8705 35.6849C6.58299 35.9361 6.32413 36.2079 6.06694 36.4867C5.90137 36.6658 5.73243 36.839 5.55426 37.007C5.27882 37.2693 5.02646 37.5486 4.77535 37.8318C4.75093 37.8594 4.72651 37.8869 4.70135 37.9152C4.19437 38.4883 3.72269 39.0831 3.26809 39.695C3.23007 39.7461 3.19205 39.7972 3.15288 39.8499C2.47452 40.7662 1.81905 41.6977 1.16906 42.6327C1.13224 42.6856 1.13224 42.6856 1.09468 42.7395C0.947563 42.951 0.800969 43.1628 0.655078 43.375C0.60948 43.4413 0.563757 43.5075 0.517904 43.5735C0.454391 43.6652 0.391393 43.7571 0.328522 43.8492C0.292773 43.9011 0.257024 43.9531 0.220192 44.0067C0.123613 44.1686 0.0607133 44.3291 0.00208303 44.5075C0.321951 44.4341 0.554805 44.2858 0.8191 44.1143C0.91038 44.056 1.00168 43.9978 1.09301 43.9397C1.13833 43.9107 1.18365 43.8816 1.23034 43.8517C1.41709 43.733 1.60613 43.6175 1.79533 43.5021C2.53309 43.0495 3.25462 42.576 3.97338 42.0981C4.26961 41.9012 4.56652 41.705 4.86958 41.5172C4.90316 41.4964 4.93674 41.4756 4.97133 41.4541C5.01271 41.429 5.01271 41.429 5.05491 41.4033C5.17473 41.3214 5.28585 41.231 5.39861 41.141C5.5335 41.0363 5.67364 40.9386 5.81384 40.8402C6.69281 40.2219 7.527 39.5486 8.31396 38.83C8.39743 38.7546 8.48211 38.6806 8.56723 38.6068C8.94761 38.2763 9.30553 37.9303 9.65712 37.5726C9.86092 37.3654 10.0674 37.1627 10.2815 36.965C10.5805 36.6866 10.8676 36.3983 11.1537 36.1081C11.1974 36.0639 11.2411 36.0196 11.2861 35.974C11.5083 35.7476 11.7263 35.5186 11.9396 35.2847C12.1025 35.1062 12.2677 34.9341 12.4471 34.7701C12.6639 34.5671 12.8698 34.3576 13.0716 34.1412C13.3506 33.8427 13.637 33.5506 13.9232 33.2583C14.1406 33.0358 14.3556 32.8116 14.5684 32.5852C14.8833 32.2503 15.2054 31.9219 15.5283 31.5939C15.6983 31.4212 15.8681 31.2483 16.0378 31.0755C16.0712 31.0416 16.1045 31.0076 16.1389 30.9727C17.3339 29.7563 17.3339 29.7563 17.9054 29.1418C18.1037 28.9297 18.3106 28.7273 18.5215 28.5263C18.7297 28.3252 18.9302 28.1176 19.1312 27.9101C19.172 27.8682 19.2127 27.8263 19.2547 27.7832C19.4453 27.5868 19.6348 27.3897 19.8218 27.1902C19.9619 27.0414 20.1063 26.899 20.2577 26.7602C20.5011 26.5321 20.7289 26.2933 20.9553 26.0501C21.2115 25.7756 21.4705 25.5139 21.7591 25.2694C22.0422 25.0211 22.3019 24.7506 22.5642 24.4831C22.885 24.1568 23.2101 23.8386 23.5566 23.5365C23.8225 23.3045 24.0813 23.066 24.3396 22.8266C24.741 22.4554 25.1445 22.0872 25.5575 21.7274C25.5931 21.6964 25.6287 21.6653 25.6654 21.6333C26.4512 20.9502 27.2548 20.2843 28.1175 19.6867C28.2134 19.6176 28.3092 19.5485 28.405 19.4793C28.7325 19.2459 29.0666 19.0219 29.4177 18.8197C29.4747 18.7865 29.5317 18.7532 29.5904 18.7189C29.6695 18.6743 29.6695 18.6743 29.7501 18.6287C29.8711 18.5301 29.8711 18.5301 29.9107 18.3914C29.9078 18.2631 29.9078 18.2631 29.8479 18.1571C29.8325 18.1238 29.8172 18.0904 29.8014 18.0561C29.8741 17.8964 29.8741 17.8964 30.0165 17.7979C30.1443 17.8384 30.2717 17.8803 30.3988 17.923C30.707 18.0199 30.9515 18.0624 31.2634 17.9965C31.3549 17.9485 31.3549 17.9485 31.427 17.7504C31.3948 17.7366 31.3626 17.7227 31.3294 17.7085C31.2874 17.6895 31.2453 17.6705 31.202 17.6509C31.1602 17.6325 31.1185 17.614 31.0754 17.595C30.9457 17.5145 30.911 17.4527 30.8573 17.3187C30.9618 17.2736 31.0665 17.2288 31.1713 17.1841C31.2296 17.1591 31.2879 17.1341 31.3479 17.1084C31.5395 17.0329 31.5944 17.0292 31.8021 17.0841C32.2175 17.2721 32.3914 17.6444 32.5861 18.0151C32.7541 18.3246 32.7541 18.3246 32.9422 18.414C33.1607 18.1439 33.3357 17.8552 33.4987 17.5509C33.5267 17.4987 33.5267 17.4987 33.5552 17.4455C33.7173 17.083 33.6899 16.6597 33.6638 16.265C33.6404 16.2194 33.617 16.1739 33.5929 16.127C33.6315 16.0275 33.6315 16.0275 33.7185 15.9483C33.8346 15.909 33.8346 15.909 33.9675 15.8882C34.3304 15.8003 34.5654 15.633 34.766 15.3385C35.0241 14.8581 34.977 14.4363 34.8455 13.9109C34.7388 13.4073 34.9494 12.9013 35.2168 12.487C35.5908 11.9832 36.0796 11.5535 36.5352 11.1169C36.7781 10.884 37.0171 10.6475 37.2559 10.4109C37.666 10.0051 38.0813 9.60461 38.502 9.20868C38.6963 9.02481 38.8831 8.84353 39.0463 8.63325C39.0993 8.65252 39.1522 8.6718 39.2068 8.69165C39.3192 8.54749 39.4317 8.40334 39.5475 8.25481C39.6488 8.27421 39.6488 8.27421 39.7521 8.294C39.8415 8.30917 39.9309 8.32425 40.0203 8.33925C40.0647 8.348 40.1091 8.35676 40.1549 8.36578C40.2862 8.38675 40.3979 8.39955 40.5289 8.38767C41.4038 7.71971 41.3399 6.388 41.2535 5.39837ZM40.3696 7.99318C40.3343 7.98033 40.299 7.96748 40.2627 7.95424C40.2508 7.98692 40.2389 8.01961 40.2266 8.05329C40.0109 8.0884 39.8727 8.04883 39.6668 7.96871C39.6144 7.94864 39.5621 7.92857 39.5081 7.9079C39.4686 7.89219 39.429 7.87649 39.3882 7.86031C39.4178 7.83405 39.4473 7.80778 39.4777 7.78073C39.5892 7.80661 39.7006 7.83273 39.8114 7.86121C39.9458 7.89201 40.0433 7.90105 40.1737 7.86577C40.3862 7.61152 40.5082 7.26839 40.4804 6.93982C40.463 6.86407 40.463 6.86407 40.4453 6.7868C40.4631 6.73777 40.481 6.68874 40.4993 6.63822C40.5582 6.64116 40.6172 6.64408 40.6778 6.6471C40.674 6.70237 40.6701 6.75765 40.6661 6.81459C40.6579 6.96193 40.665 7.08762 40.6825 7.23769C40.6993 7.55906 40.6078 7.77602 40.3696 7.99318ZM40.8924 6.55693C40.8511 6.56042 40.8099 6.56392 40.7674 6.56752C40.8088 6.50857 40.8503 6.44962 40.893 6.38889C40.8928 6.44434 40.8926 6.4998 40.8924 6.55693ZM40.822 6.2509C40.7331 6.16244 40.7331 6.16244 40.7331 6.16244L40.822 6.2509ZM40.7331 6.16244C40.6441 6.07398 40.6441 6.07397 40.6441 6.07397L40.7331 6.16244ZM40.5372 6.03504C40.4383 5.98357 40.4383 5.98357 40.3412 5.90763C40.315 5.81481 40.315 5.81482 40.2883 5.72012C40.3996 5.82521 40.4679 5.90035 40.5372 6.03504ZM40.2348 5.70065C40.1053 5.67203 39.9758 5.64339 39.8424 5.6139C39.8719 5.58763 39.9015 5.56137 39.9319 5.53431C40.0378 5.57286 40.1437 5.61141 40.2529 5.65113C40.2469 5.66747 40.241 5.68382 40.2348 5.70065ZM39.2987 7.93989C39.2097 7.85142 39.2097 7.85143 39.2097 7.85143L39.2987 7.93989ZM39.9482 5.98892C39.7877 5.93052 39.7877 5.93052 39.7877 5.93052L39.9482 5.98892ZM39.7162 5.96057C39.6725 5.95825 39.6287 5.95592 39.5837 5.95352C38.879 5.92449 38.8789 5.92449 38.602 6.12994C38.4824 6.3088 38.4556 6.45524 38.4283 6.66964C38.4638 6.73864 38.4993 6.80763 38.5347 6.87663C38.5172 7.02029 38.4813 7.15238 38.444 7.2923C38.2981 7.14161 38.2981 7.14161 38.3291 6.95253C38.3388 6.74923 38.3388 6.74923 38.2679 6.59023C38.1909 6.34798 38.2548 6.18851 38.3772 5.97799C38.5676 5.78184 38.7226 5.74557 39.0017 5.7391C39.222 5.74576 39.4295 5.76704 39.6453 5.82259C39.6927 5.74729 39.7401 5.672 39.7889 5.59443C39.7977 5.7718 39.7977 5.7718 39.7162 5.96057ZM38.8515 8.16975C38.7575 8.09852 38.6635 8.02728 38.5667 7.95389C38.6256 7.95682 38.6845 7.95975 38.7452 7.96277C38.7803 8.03108 38.8154 8.09938 38.8515 8.16975ZM38.7998 7.64615C38.7382 7.56821 38.7382 7.56821 38.6754 7.4887C38.7284 7.50797 38.7813 7.52724 38.8359 7.5471C38.824 7.57979 38.8121 7.61247 38.7998 7.64615ZM38.5847 7.90437C38.3832 7.7993 38.2607 7.685 38.1219 7.51158C38.1631 7.50808 38.2044 7.50459 38.2469 7.50099C38.3411 7.57824 38.3411 7.57824 38.4326 7.67725C38.4645 7.71019 38.4964 7.74313 38.5293 7.77706C38.5535 7.80273 38.5777 7.8284 38.6027 7.85484C38.5968 7.87119 38.5908 7.88753 38.5847 7.90437ZM33.8272 15.4831C33.7383 15.3947 33.7383 15.3947 33.7383 15.3947L33.8272 15.4831ZM33.9552 14.6323C33.8786 14.623 33.8021 14.6136 33.7232 14.604C33.7351 14.5713 33.747 14.5386 33.7592 14.5049C33.8358 14.5143 33.9124 14.5236 33.9912 14.5333C33.9793 14.566 33.9674 14.5986 33.9552 14.6323ZM33.7022 15.4937C33.5183 15.4975 33.4095 15.4991 33.2383 15.437C33.0283 15.2282 32.9078 14.9982 32.8268 14.7264C32.8332 14.4531 32.8991 14.2767 33.0835 14.0732C33.2602 13.9493 33.2602 13.9493 33.4755 13.953C33.6675 14.0271 33.6675 14.0271 33.8319 14.1388C33.8494 14.2007 33.8668 14.2625 33.8848 14.3263C33.8502 14.3192 33.8155 14.3121 33.7798 14.3047C33.4071 14.2371 33.4071 14.2371 33.2255 14.2966C33.1026 14.4229 33.0612 14.5154 33.0266 14.687C33.0681 14.9178 33.1055 15.0912 33.3104 15.2389C33.4452 15.3124 33.5811 15.3784 33.7203 15.4442C33.7143 15.4605 33.7084 15.4769 33.7022 15.4937ZM34.1552 13.5834C34.0119 13.464 33.8756 13.3427 33.7459 13.2101C33.6573 13.2889 33.6573 13.2889 33.5668 13.3693C33.4674 13.3136 33.4674 13.3136 33.3709 13.2419C33.3651 13.2027 33.3594 13.1636 33.3535 13.1233C33.4302 13.0772 33.507 13.0311 33.586 12.9836C33.7916 13.0895 33.9942 13.197 34.1919 13.3163C34.1798 13.4045 34.1677 13.4926 34.1552 13.5834ZM34.6786 11.9791C34.5844 11.9633 34.4901 11.9476 34.3931 11.9313C34.4228 11.8496 34.4526 11.7679 34.4832 11.6837C34.389 11.6679 34.2948 11.6521 34.1977 11.6359C34.1803 11.574 34.1628 11.5121 34.1448 11.4483C34.3275 11.4408 34.5102 11.4332 34.6983 11.4255C34.6918 11.6082 34.6853 11.7909 34.6786 11.9791ZM32.0946 15.7499C31.8883 15.7674 31.6821 15.7848 31.4696 15.8028C31.5013 15.7555 31.5331 15.7081 31.5658 15.6593C32.0211 14.962 32.0211 14.962 31.9737 14.5842C31.9142 14.4277 31.8639 14.3401 31.7429 14.2197C31.4343 14.0762 31.1665 13.9807 30.833 14.0568C30.5805 14.1733 30.3586 14.3182 30.1353 14.4759C30.1005 14.2823 30.098 14.097 30.1016 13.9028C30.4419 13.7597 30.7856 13.8086 31.1551 13.8375C31.2094 13.8416 31.2638 13.8457 31.3198 13.8499C31.418 13.8575 31.5161 13.8653 31.6143 13.8734C31.7766 13.8862 31.9387 13.8945 32.1011 13.9014C32.0986 13.9664 32.0962 14.0315 32.0937 14.0985C32.0913 14.3515 32.123 14.5957 32.158 14.8475C32.2026 15.1762 32.201 15.4394 32.0946 15.7499ZM32.9802 12.651C32.933 12.6708 32.8858 12.6906 32.8372 12.7111C32.7301 12.6543 32.7301 12.6542 32.6412 12.5837C32.715 12.4767 32.7907 12.3763 32.8744 12.2759C32.8185 12.2475 32.7627 12.2191 32.7051 12.1898C32.5196 12.0973 32.5196 12.0973 32.3756 11.9822C32.3875 11.9495 32.3993 11.9168 32.4116 11.8831C32.5235 11.9053 32.6353 11.9276 32.7506 11.9504C32.7387 11.9831 32.7268 12.0158 32.7145 12.0495C32.7789 12.1094 32.7789 12.1094 32.8446 12.1705C32.9958 12.3085 32.9958 12.3085 33.0343 12.5024C33.0164 12.5514 32.9986 12.6004 32.9802 12.651ZM30.4137 16.5402C30.0733 16.662 29.4334 16.8565 29.0741 16.7257C29.1292 15.8902 29.1292 15.8902 29.5614 15.2205C29.5438 15.275 29.5262 15.3294 29.5081 15.3856C29.4856 15.4584 29.4631 15.5313 29.4406 15.6042C29.4232 15.6578 29.4232 15.6578 29.4054 15.7125C29.3327 15.952 29.3226 16.1332 29.3788 16.3879C29.6843 16.5418 29.8716 16.5231 30.1926 16.4449C30.4071 16.384 30.6163 16.3158 30.8253 16.2414C30.7629 16.413 30.5794 16.468 30.4137 16.5402ZM31.6394 13.1725C31.3888 13.234 31.2374 13.2163 30.9913 13.1224C30.9373 13.1025 30.8834 13.0827 30.8277 13.0622C30.6733 12.9888 30.5673 12.9087 30.4446 12.7937C30.4801 12.7511 30.5156 12.7085 30.5522 12.6646C30.5816 12.6938 30.6109 12.723 30.6412 12.7531C30.8561 12.9159 31.083 13.0131 31.3577 13.0209C31.4615 12.9956 31.4615 12.9956 31.5511 12.916C31.7247 12.4861 31.7247 12.4861 31.7139 12.3022C31.6845 12.273 31.6552 12.2438 31.6249 12.2138C31.7741 12.2861 31.8984 12.3477 32.009 12.4692C32.0739 12.7721 31.9026 13.0315 31.6394 13.1725ZM31.3924 12.3535C31.3454 12.3178 31.2983 12.2822 31.2499 12.2455C31.3207 12.2158 31.3915 12.186 31.4645 12.1554C31.4407 12.2207 31.4169 12.2861 31.3924 12.3535ZM29.088 17.8525C29.025 17.8953 28.9615 17.9376 28.8979 17.9796C28.8626 18.0032 28.8273 18.0268 28.7909 18.0511C28.7591 18.0678 28.7272 18.0846 28.6944 18.1018C28.6591 18.089 28.6238 18.0761 28.5874 18.0629C28.5642 18.0856 28.5411 18.1082 28.5172 18.1316C28.1502 18.4365 27.6563 18.6302 27.2201 18.8381C27.0175 18.9354 26.8186 19.038 26.6198 19.1415C26.6205 18.9375 26.6822 18.8466 26.7842 18.6718C26.819 18.6117 26.8538 18.5515 26.8897 18.4895C26.9276 18.425 26.9654 18.3606 27.0033 18.2961C27.0412 18.2308 27.0792 18.1655 27.1171 18.1002C27.192 17.9712 27.2672 17.8422 27.3426 17.7134C27.4319 17.5608 27.5208 17.4081 27.6095 17.2552C27.7165 17.0708 27.8239 16.8866 27.9316 16.7025C27.9492 16.7089 27.9669 16.7153 27.9851 16.722C27.8513 17.1293 27.6919 17.515 27.5001 17.8985C27.4807 17.9373 27.4613 17.9761 27.4414 18.016C27.3559 18.1841 27.2694 18.3427 27.1577 18.496C27.4026 18.5109 27.5287 18.4742 27.7261 18.3488C27.9312 18.2239 28.125 18.1155 28.3554 18.0346C28.3907 18.0474 28.426 18.0602 28.4624 18.0735C28.4956 18.0387 28.4956 18.0387 28.5296 18.0033C28.6721 17.89 28.8263 17.8312 28.999 17.764C29.0431 17.8078 29.0431 17.8078 29.088 17.8525ZM11.8913 34.4767C11.792 34.5833 11.6911 34.6829 11.5841 34.7824C11.5519 34.813 11.5196 34.8435 11.4864 34.8749C11.3806 34.9749 11.2743 35.0744 11.1681 35.1739C11.0952 35.2427 11.0223 35.3114 10.9495 35.3803C10.8046 35.5171 10.6595 35.6537 10.5144 35.7903C10.3035 35.9888 10.0942 36.1888 9.88529 36.3892C9.17059 37.0748 8.45211 37.7539 7.68228 38.3851C7.63603 38.4233 7.58977 38.4616 7.54212 38.501C7.45957 38.5693 7.37689 38.6374 7.29405 38.7053C7.21091 38.7737 7.12801 38.8423 7.04543 38.9113C6.40575 39.4442 5.73967 39.9706 5.0147 40.4008C4.79191 40.5337 4.57442 40.6735 4.35654 40.8132C4.29545 40.8521 4.29545 40.8521 4.23313 40.8918C4.06936 40.9967 3.91115 41.1007 3.75908 41.2202C3.72482 41.2446 3.69056 41.269 3.65526 41.2941C3.61996 41.2813 3.58465 41.2684 3.54828 41.2552C3.52228 41.2858 3.49628 41.3165 3.4695 41.3481C3.33672 41.478 3.20133 41.5572 3.03476 41.6467C2.95276 41.6911 2.95276 41.6911 2.8691 41.7364C2.82749 41.7585 2.78587 41.7806 2.74299 41.8034C2.71753 41.6303 2.79867 41.5589 2.89505 41.4168C2.93217 41.3619 2.96929 41.3071 3.00753 41.2505C3.04849 41.1909 3.08948 41.1312 3.1305 41.0716C3.15107 41.0414 3.17165 41.0113 3.19285 40.9803C3.57126 40.4263 3.96681 39.8851 4.37565 39.3514C4.45734 39.2446 4.53831 39.1374 4.61899 39.0299C5.87659 37.3624 7.41461 35.8882 8.95094 34.4528C9.11979 34.2937 9.28275 34.1294 9.44618 33.9653C9.71153 33.6993 9.99043 33.4537 10.289 33.2204C10.2882 33.4281 10.2399 33.4585 10.0962 33.6038C10.0554 33.6454 10.0146 33.687 9.97256 33.7298C9.92858 33.7738 9.8846 33.8177 9.83929 33.863C9.79471 33.9082 9.75013 33.9534 9.7042 33.9999C9.44292 34.2636 9.17651 34.5211 8.90449 34.7748C8.61896 35.0515 8.35137 35.344 8.08073 35.6336C7.9432 35.7804 7.8048 35.9265 7.66638 36.0726C6.65399 37.1415 5.69731 38.2446 4.82224 39.4193C4.7701 39.4878 4.7179 39.5562 4.66566 39.6246C4.61135 39.6962 4.55705 39.7678 4.50277 39.8394C4.47708 39.8728 4.45139 39.9062 4.42493 39.9407C4.29862 40.1083 4.19708 40.2573 4.14019 40.4611C4.30268 40.3986 4.4355 40.3218 4.57548 40.224C4.61781 40.1947 4.66014 40.1654 4.70374 40.1352C4.74802 40.1044 4.79229 40.0737 4.83791 40.042C4.92716 39.9813 5.0165 39.9207 5.10592 39.8602C5.97277 39.272 5.97277 39.272 6.39594 38.9755C6.48096 38.916 6.48096 38.916 6.5677 38.8553C6.69908 38.7564 6.69908 38.7564 6.80665 38.6273C6.84195 38.6401 6.87726 38.653 6.91363 38.6662C6.94367 38.6281 6.97371 38.59 7.00467 38.5508C7.12491 38.4124 7.248 38.3029 7.39328 38.1883C7.44428 38.1477 7.49528 38.1072 7.54783 38.0654C7.60081 38.0236 7.6538 37.9819 7.70838 37.9389C8.06315 37.6585 8.41022 37.3742 8.74499 37.0729C8.90573 36.9289 9.07126 36.7903 9.23706 36.6514C9.76139 36.2094 10.2703 35.7517 10.7804 35.2953C11.1383 34.9754 11.4983 34.6599 11.8739 34.3582C11.8825 34.4168 11.8825 34.4168 11.8913 34.4767Z" fill="#553920"/>
<path d="M0.614855 5.39837C0.685784 5.26039 0.685784 5.26039 0.800366 5.20203C0.989919 5.15368 1.13821 5.16425 1.33043 5.17999C1.59072 5.19875 1.84144 5.20697 2.10372 5.19299C2.41528 5.18219 2.66588 5.23739 2.95332 5.33245C2.99926 5.34624 3.0452 5.36003 3.09252 5.37424C3.33965 5.45077 3.33965 5.45077 3.43591 5.49333C3.4478 5.52601 3.4597 5.5587 3.47196 5.59238C3.50726 5.57953 3.54257 5.56668 3.57894 5.55344C3.90214 5.77572 3.90214 5.77572 3.97428 5.97391C3.97374 6.13886 3.97374 6.13886 3.91971 6.32328C3.8606 6.54091 3.87857 6.67054 3.94063 6.88004C4.03141 7.02187 4.03141 7.02187 4.1732 7.01974C4.22872 7.10206 4.22872 7.10206 4.28993 7.21562C4.40706 7.4098 4.53744 7.56048 4.70557 7.71656C4.75494 7.76253 4.80431 7.8085 4.85518 7.85586C4.90864 7.90498 4.96215 7.95405 5.01572 8.00307C5.05585 8.03986 5.05585 8.03986 5.0968 8.07738C5.26878 8.23475 5.44142 8.39147 5.61422 8.54804C6.15356 9.03691 6.68766 9.52972 7.21009 10.0347C8.1654 10.9711 8.1654 10.9711 9.46475 11.3207C9.66031 11.3082 9.849 11.2833 10.042 11.2442C10.4738 11.1568 10.8761 11.154 11.2592 11.3555C11.5901 11.5754 11.7289 11.7773 11.8566 12.1419C11.8699 12.1791 11.8831 12.2163 11.8968 12.2547C11.9295 12.3464 11.9618 12.4382 11.9941 12.53C12.0319 12.5211 12.0697 12.5122 12.1087 12.503C12.9285 12.3281 13.5037 12.5028 14.1861 12.8861C14.3305 12.9697 14.3305 12.9697 14.4773 13.0284C14.5011 13.0937 14.5249 13.1591 14.5494 13.2265C14.5208 13.2408 14.4922 13.2552 14.4627 13.2699C14.3305 13.3367 14.1988 13.4044 14.0672 13.4721C14.0221 13.4946 13.9771 13.5172 13.9308 13.5404C13.6231 13.6999 13.3423 13.8716 13.1244 14.1377C13.0503 14.3839 13.1534 14.5595 13.2594 14.7792C13.288 14.8391 13.3165 14.8991 13.3459 14.9609C13.3793 15.0288 13.3793 15.0288 13.4134 15.0982C13.5518 15.0185 13.6783 14.9396 13.8053 14.8434C13.8339 14.7208 13.8339 14.7208 13.8402 14.6064C13.8931 14.5871 13.9461 14.5678 14.0006 14.548C14.1853 14.9548 14.1488 15.2564 13.9733 15.6796C13.9429 15.7472 13.9121 15.8146 13.8803 15.8817C13.9454 15.9506 14.0104 16.0195 14.0774 16.0904C14.2422 16.0489 14.4071 16.0075 14.5769 15.9647C14.7149 16.1219 14.8376 16.2856 14.956 16.4564C15.8147 17.6935 16.7953 18.8418 17.8342 19.9448C17.9591 20.0785 18.0816 20.2141 18.2043 20.3497C18.3667 20.5271 18.5327 20.692 18.7164 20.8495C18.9134 21.0257 19.0912 21.2201 19.2733 21.4099C19.6162 21.7647 19.9647 22.1098 20.3282 22.4459C20.4793 22.5871 20.6281 22.7305 20.7773 22.8735C21.2868 23.3621 21.8037 23.843 22.3244 24.3209C22.5487 24.5274 22.7716 24.7354 22.9943 24.9435C23.2019 25.137 23.4128 25.3268 23.6259 25.5149C23.6814 25.5643 23.7369 25.6136 23.7923 25.6629C23.8198 25.6873 23.8473 25.7117 23.8756 25.7369C23.9353 25.79 23.995 25.8431 24.0547 25.8962C24.2102 26.0345 24.3659 26.1726 24.522 26.3103C24.8246 26.5775 25.123 26.8477 25.4156 27.1245C25.7159 27.408 26.0275 27.6778 26.3443 27.9447C26.698 28.2429 27.0428 28.5493 27.3866 28.8574C27.4649 28.9271 27.5432 28.9967 27.6216 29.0663C27.8539 29.2727 27.8539 29.2727 28.0861 29.4791C28.1314 29.5193 28.1766 29.5594 28.2232 29.6008C28.3281 29.6941 28.4328 29.7876 28.5373 29.8813C28.8481 30.1594 29.1619 30.4338 29.4818 30.7028C29.9842 31.1257 30.4736 31.5596 30.9492 32.0091C31.2116 32.257 31.4822 32.4942 31.7595 32.7272C32.0924 33.0069 32.4135 33.2955 32.7292 33.5923C32.9423 33.7924 33.1588 33.9883 33.3792 34.1814C33.7086 34.4706 34.0227 34.7732 34.3364 35.0775C34.5518 35.2859 34.7702 35.4885 34.9979 35.6849C35.2854 35.9361 35.5442 36.2079 35.8014 36.4867C35.967 36.6658 36.1359 36.839 36.3141 37.007C36.5895 37.2693 36.8419 37.5486 37.093 37.8318C37.1174 37.8594 37.1418 37.8869 37.167 37.9152C37.674 38.4883 38.1457 39.0831 38.6003 39.695C38.6383 39.7461 38.6763 39.7972 38.7155 39.8499C39.3938 40.7662 40.0493 41.6977 40.6993 42.6327C40.7361 42.6856 40.7361 42.6856 40.7737 42.7395C40.9208 42.951 41.0674 43.1628 41.2133 43.375C41.2589 43.4413 41.3046 43.5075 41.3504 43.5735C41.414 43.6652 41.477 43.7571 41.5398 43.8492C41.5756 43.9011 41.6113 43.9531 41.6482 44.0067C41.7447 44.1686 41.8076 44.3291 41.8663 44.5075C41.5464 44.4341 41.3135 44.2858 41.0492 44.1143C40.958 44.056 40.8667 43.9978 40.7753 43.9397C40.73 43.9107 40.6847 43.8816 40.638 43.8517C40.4513 43.733 40.2622 43.6175 40.073 43.5021C39.3353 43.0495 38.6137 42.576 37.895 42.0981C37.5987 41.9012 37.3018 41.705 36.9988 41.5172C36.9652 41.4964 36.9316 41.4756 36.897 41.4541C36.8556 41.429 36.8556 41.429 36.8134 41.4033C36.6936 41.3215 36.5825 41.231 36.4697 41.141C36.3348 41.0363 36.1947 40.9386 36.0545 40.8402C35.1755 40.2219 34.3413 39.5486 33.5544 38.83C33.4709 38.7546 33.3862 38.6806 33.3011 38.6068C32.9207 38.2763 32.5628 37.9303 32.2112 37.5726C32.0074 37.3654 31.8009 37.1627 31.5869 36.965C31.2878 36.6866 31.0008 36.3983 30.7147 36.1081C30.671 36.0639 30.6273 36.0196 30.5823 35.974C30.3601 35.7476 30.1421 35.5186 29.9287 35.2847C29.7659 35.1062 29.6006 34.9341 29.4213 34.7701C29.2044 34.5671 28.9986 34.3576 28.7968 34.1412C28.5177 33.8427 28.2314 33.5506 27.9452 33.2583C27.7278 33.0358 27.5128 32.8116 27.3 32.5852C26.985 32.2503 26.6629 31.9219 26.34 31.5939C26.17 31.4212 26.0003 31.2483 25.8305 31.0755C25.7972 31.0416 25.7638 31.0076 25.7295 30.9727C24.5345 29.7563 24.5345 29.7563 23.963 29.1418C23.7646 28.9297 23.5578 28.7273 23.3469 28.5263C23.1387 28.3252 22.9381 28.1176 22.7371 27.9101C22.6964 27.8682 22.6556 27.8263 22.6137 27.7832C22.423 27.5868 22.2336 27.3897 22.0466 27.1902C21.9065 27.0414 21.762 26.899 21.6106 26.7602C21.3673 26.5321 21.1395 26.2933 20.913 26.0501C20.6569 25.7756 20.3979 25.5139 20.1092 25.2694C19.8262 25.0211 19.5665 24.7506 19.3041 24.4831C18.9833 24.1568 18.6582 23.8386 18.3118 23.5365C18.0458 23.3045 17.7871 23.066 17.5287 22.8266C17.1274 22.4554 16.7238 22.0872 16.3109 21.7274C16.2752 21.6964 16.2396 21.6653 16.2029 21.6333C15.4171 20.9502 14.6135 20.2843 13.7508 19.6867C13.6549 19.6176 13.5591 19.5485 13.4633 19.4793C13.1358 19.2459 12.8017 19.0219 12.4507 18.8197C12.3937 18.7864 12.3367 18.7532 12.2779 18.7189C12.1989 18.6743 12.1989 18.6743 12.1183 18.6287C11.9972 18.5301 11.9972 18.5301 11.9576 18.3914C11.9606 18.2631 11.9606 18.2631 12.0204 18.1571C12.0358 18.1238 12.0511 18.0904 12.067 18.0561C11.9942 17.8964 11.9942 17.8964 11.8518 17.7979C11.724 17.8384 11.5967 17.8803 11.4695 17.923C11.1614 18.0199 10.9169 18.0624 10.6049 17.9965C10.5134 17.9485 10.5134 17.9485 10.4413 17.7504C10.4735 17.7366 10.5057 17.7227 10.5389 17.7085C10.581 17.6895 10.623 17.6705 10.6663 17.6509C10.7081 17.6325 10.7499 17.614 10.7929 17.595C10.9226 17.5145 10.9574 17.4527 11.0111 17.3187C10.9065 17.2736 10.8018 17.2288 10.6971 17.1841C10.6388 17.1591 10.5805 17.1341 10.5204 17.1083C10.3288 17.0329 10.2739 17.0292 10.0663 17.0841C9.65087 17.2721 9.47694 17.6444 9.28222 18.0151C9.11422 18.3246 9.11422 18.3246 8.92614 18.414C8.70766 18.1439 8.53268 17.8551 8.36969 17.5509C8.34169 17.4987 8.34169 17.4987 8.31312 17.4455C8.15103 17.083 8.17847 16.6597 8.20452 16.265C8.22793 16.2194 8.25134 16.1739 8.27545 16.127C8.23681 16.0275 8.23681 16.0275 8.14986 15.9483C8.03378 15.9089 8.03378 15.9089 7.90083 15.8882C7.53793 15.8003 7.30293 15.633 7.1023 15.3385C6.84423 14.8581 6.89132 14.4363 7.02283 13.9109C7.12956 13.4073 6.91895 12.9013 6.65152 12.487C6.27756 11.9832 5.78878 11.5535 5.33317 11.1169C5.09021 10.884 4.85126 10.6475 4.61241 10.4108C4.20231 10.0051 3.78709 9.60461 3.36639 9.20867C3.17203 9.02481 2.98523 8.84353 2.82204 8.63324C2.76909 8.65252 2.71613 8.67179 2.66157 8.69165C2.54913 8.54749 2.43669 8.40333 2.32085 8.2548C2.21956 8.27421 2.21956 8.27421 2.11623 8.294C2.02685 8.30917 1.93745 8.32425 1.84804 8.33925C1.80364 8.348 1.75923 8.35676 1.71348 8.36578C1.58213 8.38675 1.47043 8.39955 1.33941 8.38767C0.464576 7.71971 0.528435 6.388 0.614855 5.39837ZM1.49871 7.99317C1.53401 7.98032 1.56932 7.96747 1.60569 7.95423C1.61758 7.98692 1.62948 8.01961 1.64174 8.05329C1.85741 8.08839 1.99568 8.04883 2.20157 7.96871C2.25392 7.94864 2.30628 7.92857 2.36022 7.9079C2.39979 7.89219 2.43937 7.87649 2.48014 7.86031C2.45059 7.83404 2.42104 7.80778 2.3906 7.78072C2.27916 7.80661 2.16776 7.83273 2.05691 7.8612C1.92257 7.89201 1.8251 7.90105 1.69464 7.86577C1.48219 7.61151 1.3601 7.26839 1.38791 6.93981C1.40532 6.86407 1.40532 6.86407 1.42308 6.7868C1.40523 6.73777 1.38739 6.68874 1.369 6.63822C1.3101 6.64115 1.25119 6.64408 1.19051 6.6471C1.19438 6.70237 1.19826 6.75764 1.20225 6.81459C1.21047 6.96193 1.20332 7.08762 1.18588 7.23769C1.16908 7.55906 1.26056 7.77601 1.49871 7.99317ZM0.97596 6.55693C1.01721 6.56042 1.05846 6.56392 1.10097 6.56752C1.05952 6.50857 1.01807 6.44962 0.975372 6.38889C0.975565 6.44434 0.975759 6.49979 0.97596 6.55693ZM1.0463 6.25089C1.13525 6.16243 1.13525 6.16243 1.13525 6.16243L1.0463 6.25089ZM1.13525 6.16243C1.22421 6.07397 1.22421 6.07397 1.22421 6.07397L1.13525 6.16243ZM1.33119 6.03503C1.43002 5.98357 1.43002 5.98357 1.52712 5.90763C1.55331 5.81481 1.55331 5.81481 1.58002 5.72012C1.46877 5.82521 1.40042 5.90034 1.33119 6.03503ZM1.63351 5.70065C1.76302 5.67202 1.89253 5.64339 2.02597 5.61389C1.99642 5.58763 1.96687 5.56137 1.93643 5.53431C1.83052 5.57286 1.72461 5.61141 1.61549 5.65112C1.62144 5.66747 1.62738 5.68381 1.63351 5.70065ZM2.56968 7.93989C2.65864 7.85142 2.65864 7.85142 2.65864 7.85142L2.56968 7.93989ZM1.92016 5.98892C2.08063 5.93052 2.08063 5.93052 2.08063 5.93052L1.92016 5.98892ZM2.15215 5.96057C2.19589 5.95825 2.23963 5.95592 2.2847 5.95352C2.9894 5.92449 2.9894 5.92449 3.2663 6.12994C3.38599 6.30879 3.41278 6.45524 3.44002 6.66964C3.40456 6.73863 3.36909 6.80763 3.33363 6.87662C3.35117 7.02029 3.38701 7.15237 3.42434 7.2923C3.57023 7.14161 3.57023 7.14161 3.5392 6.95253C3.52956 6.74922 3.52956 6.74922 3.60042 6.59023C3.67749 6.34798 3.61353 6.18851 3.49116 5.97799C3.30075 5.78183 3.14575 5.74556 2.8666 5.73909C2.64636 5.74575 2.43889 5.76704 2.22308 5.82258C2.17568 5.74729 2.12829 5.672 2.07946 5.59442C2.07067 5.7718 2.07067 5.7718 2.15215 5.96057ZM3.0168 8.16975C3.11081 8.09852 3.20483 8.02728 3.30169 7.95389C3.24279 7.95682 3.18388 7.95975 3.12319 7.96277C3.08808 8.03108 3.05297 8.09938 3.0168 8.16975ZM3.06853 7.64615C3.13012 7.56821 3.13012 7.56821 3.19295 7.48869C3.13999 7.50797 3.08704 7.52724 3.03248 7.5471C3.04437 7.57978 3.05627 7.61247 3.06853 7.64615ZM3.28366 7.90436C3.4852 7.7993 3.60761 7.68499 3.74646 7.51158C3.70521 7.50808 3.66395 7.50459 3.62145 7.50099C3.52725 7.57824 3.52725 7.57824 3.43573 7.67725C3.40384 7.71019 3.37194 7.74313 3.33908 7.77706C3.31484 7.80273 3.29061 7.82839 3.26564 7.85484C3.27159 7.87118 3.27753 7.88752 3.28366 7.90436ZM8.04112 15.4831C8.13007 15.3947 8.13007 15.3947 8.13007 15.3947L8.04112 15.4831ZM7.91317 14.6323C7.98973 14.623 8.06628 14.6136 8.14516 14.604C8.13326 14.5713 8.12136 14.5386 8.10911 14.5049C8.03255 14.5143 7.956 14.5236 7.87712 14.5333C7.88902 14.566 7.90091 14.5986 7.91317 14.6323ZM8.16612 15.4937C8.35007 15.4975 8.45881 15.4991 8.63009 15.437C8.84007 15.2282 8.96058 14.9981 9.04157 14.7264C9.03513 14.4531 8.96922 14.2766 8.78488 14.0732C8.60819 13.9493 8.60819 13.9493 8.39282 13.953C8.20084 14.0271 8.20084 14.0271 8.03641 14.1388C8.01896 14.2007 8.0015 14.2625 7.98351 14.3263C8.01817 14.3192 8.05282 14.3121 8.08853 14.3047C8.46129 14.2371 8.46129 14.2371 8.64284 14.2966C8.76574 14.4229 8.8071 14.5154 8.8417 14.687C8.80025 14.9178 8.76283 15.0912 8.55799 15.2389C8.42317 15.3124 8.28728 15.3784 8.1481 15.4442C8.15404 15.4605 8.15999 15.4769 8.16612 15.4937ZM7.71313 13.5834C7.85643 13.464 7.99277 13.3427 8.12243 13.2101C8.21108 13.2889 8.21108 13.2889 8.30151 13.3692C8.40091 13.3136 8.40091 13.3136 8.49745 13.2418C8.5032 13.2027 8.50896 13.1636 8.51489 13.1233C8.43814 13.0772 8.36139 13.0311 8.28231 12.9836C8.07672 13.0895 7.87415 13.197 7.67649 13.3163C7.68858 13.4044 7.70067 13.4926 7.71313 13.5834ZM7.18979 11.9791C7.284 11.9633 7.3782 11.9476 7.47526 11.9313C7.44552 11.8496 7.41578 11.7679 7.38514 11.6837C7.47934 11.6679 7.57355 11.6521 7.67061 11.6359C7.68807 11.574 7.70553 11.5121 7.72351 11.4483C7.54085 11.4408 7.3582 11.4332 7.17 11.4255C7.17653 11.6082 7.18306 11.7909 7.18979 11.9791ZM9.77376 15.7499C9.98001 15.7674 10.1863 15.7848 10.3988 15.8028C10.367 15.7555 10.3353 15.7081 10.3025 15.6593C9.84726 14.962 9.84726 14.962 9.89465 14.5842C9.95419 14.4277 10.0044 14.3401 10.1255 14.2197C10.4341 14.0762 10.7019 13.9807 11.0354 14.0568C11.2879 14.1733 11.5098 14.3182 11.7331 14.4759C11.7678 14.2823 11.7703 14.097 11.7668 13.9028C11.4264 13.7597 11.0827 13.8086 10.7133 13.8375C10.6589 13.8416 10.6046 13.8457 10.5486 13.8499C10.4504 13.8575 10.3522 13.8653 10.254 13.8734C10.0918 13.8862 9.92965 13.8945 9.76729 13.9014C9.76973 13.9664 9.77217 14.0315 9.77468 14.0985C9.77709 14.3514 9.74538 14.5957 9.71035 14.8475C9.66576 15.1762 9.66735 15.4394 9.77376 15.7499ZM8.88814 12.651C8.93534 12.6708 8.98254 12.6906 9.03117 12.7111C9.1382 12.6542 9.1382 12.6542 9.22711 12.5837C9.1533 12.4767 9.0776 12.3763 8.99395 12.2759C9.04981 12.2475 9.10568 12.2191 9.16324 12.1898C9.34878 12.0973 9.34878 12.0973 9.49279 11.9822C9.4809 11.9495 9.469 11.9168 9.45674 11.8831C9.34488 11.9053 9.23302 11.9275 9.11777 11.9504C9.12967 11.9831 9.14157 12.0158 9.15383 12.0495C9.08942 12.1094 9.08942 12.1094 9.0237 12.1705C8.87251 12.3085 8.87251 12.3085 8.83406 12.5024C8.85191 12.5514 8.86975 12.6004 8.88814 12.651ZM11.4547 16.5402C11.7951 16.662 12.4349 16.8565 12.7943 16.7257C12.7392 15.8902 12.7392 15.8902 12.307 15.2205C12.3245 15.275 12.3421 15.3294 12.3602 15.3856C12.3828 15.4584 12.4052 15.5313 12.4277 15.6042C12.4452 15.6578 12.4452 15.6578 12.463 15.7125C12.5357 15.9519 12.5457 16.1332 12.4896 16.3879C12.1841 16.5418 11.9967 16.5231 11.6758 16.4449C11.4612 16.384 11.2521 16.3158 11.043 16.2414C11.1055 16.4129 11.2889 16.468 11.4547 16.5402ZM10.2289 13.1725C10.4796 13.234 10.631 13.2163 10.877 13.1224C10.931 13.1025 10.985 13.0827 11.0406 13.0622C11.195 12.9888 11.301 12.9087 11.4237 12.7937C11.3882 12.7511 11.3527 12.7085 11.3161 12.6646C11.2868 12.6938 11.2574 12.723 11.2272 12.7531C11.0123 12.9159 10.7853 13.0131 10.5107 13.0209C10.4068 12.9956 10.4068 12.9956 10.3173 12.916C10.1436 12.4861 10.1436 12.4861 10.1545 12.3022C10.1838 12.273 10.2132 12.2438 10.2434 12.2138C10.0943 12.2861 9.96997 12.3477 9.85936 12.4692C9.79446 12.7721 9.96574 13.0315 10.2289 13.1725ZM10.476 12.3535C10.523 12.3178 10.57 12.2822 10.6184 12.2455C10.5476 12.2158 10.4768 12.186 10.4039 12.1554C10.4277 12.2207 10.4515 12.2861 10.476 12.3535ZM12.7804 17.8525C12.8434 17.8953 12.9068 17.9376 12.9705 17.9796C13.0058 18.0032 13.0411 18.0268 13.0774 18.0511C13.1093 18.0678 13.1412 18.0846 13.174 18.1018C13.2093 18.089 13.2446 18.0761 13.281 18.0629C13.3041 18.0856 13.3273 18.1082 13.3511 18.1316C13.7181 18.4365 14.212 18.6302 14.6483 18.8381C14.8509 18.9354 15.0497 19.038 15.2485 19.1415C15.2478 18.9375 15.1861 18.8466 15.0842 18.6718C15.0493 18.6117 15.0145 18.5515 14.9786 18.4895C14.9408 18.425 14.9029 18.3605 14.8651 18.2961C14.8271 18.2308 14.7892 18.1655 14.7513 18.1002C14.6763 17.9712 14.6011 17.8422 14.5257 17.7134C14.4365 17.5608 14.3475 17.4081 14.2589 17.2552C14.1518 17.0708 14.0444 16.8866 13.9368 16.7025C13.9191 16.7089 13.9015 16.7153 13.8833 16.722C14.0171 17.1293 14.1765 17.515 14.3683 17.8985C14.3877 17.9373 14.407 17.976 14.427 18.016C14.5124 18.1841 14.5989 18.3427 14.7107 18.496C14.4658 18.5109 14.3397 18.4742 14.1422 18.3488C13.9372 18.2239 13.7433 18.1155 13.5129 18.0346C13.4776 18.0474 13.4423 18.0602 13.406 18.0735C13.3727 18.0387 13.3727 18.0387 13.3388 18.0033C13.1963 17.89 13.042 17.8312 12.8693 17.764C12.8253 17.8078 12.8253 17.8078 12.7804 17.8525ZM29.977 34.4767C30.0764 34.5833 30.1772 34.6829 30.2842 34.7824C30.3165 34.813 30.3487 34.8435 30.382 34.8749C30.4877 34.9749 30.594 35.0744 30.7003 35.1739C30.7732 35.2427 30.8461 35.3114 30.9189 35.3803C31.0638 35.5171 31.2088 35.6537 31.354 35.7903C31.5649 35.9888 31.7742 36.1888 31.9831 36.3892C32.6978 37.0748 33.4162 37.7539 34.1861 38.3851C34.2323 38.4233 34.2786 38.4616 34.3262 38.501C34.4088 38.5693 34.4915 38.6374 34.5743 38.7053C34.6574 38.7737 34.7403 38.8423 34.8229 38.9113C35.4626 39.4442 36.1287 39.9706 36.8537 40.4008C37.0764 40.5337 37.2939 40.6735 37.5118 40.8132C37.5729 40.8521 37.5729 40.8521 37.6352 40.8918C37.799 40.9967 37.9572 41.1007 38.1093 41.2202C38.1435 41.2446 38.1778 41.269 38.2131 41.2941C38.2484 41.2813 38.2837 41.2684 38.3201 41.2552C38.3461 41.2858 38.3721 41.3165 38.3988 41.3481C38.5316 41.478 38.667 41.5572 38.8336 41.6467C38.9156 41.6911 38.9156 41.6911 38.9992 41.7364C39.0409 41.7585 39.0825 41.7806 39.1254 41.8034C39.1508 41.6303 39.0697 41.5589 38.9733 41.4168C38.9362 41.3619 38.8991 41.3071 38.8608 41.2505C38.8199 41.1909 38.7789 41.1312 38.7378 41.0716C38.7173 41.0414 38.6967 41.0113 38.6755 40.9803C38.2971 40.4263 37.9015 39.8851 37.4927 39.3514C37.411 39.2446 37.33 39.1374 37.2494 39.0299C35.9918 37.3624 34.4537 35.8882 32.9174 34.4528C32.7486 34.2937 32.5856 34.1294 32.4222 33.9653C32.1568 33.6993 31.8779 33.4537 31.5794 33.2204C31.5801 33.4281 31.6284 33.4585 31.7721 33.6038C31.8129 33.6454 31.8537 33.687 31.8958 33.7298C31.9398 33.7738 31.9837 33.8177 32.0291 33.863C32.0736 33.9082 32.1182 33.9534 32.1642 33.9999C32.4254 34.2636 32.6918 34.5211 32.9639 34.7748C33.2494 35.0515 33.517 35.344 33.7876 35.6336C33.9251 35.7804 34.0635 35.9265 34.202 36.0726C35.2144 37.1415 36.171 38.2446 37.0461 39.4193C37.0983 39.4878 37.1504 39.5562 37.2027 39.6246C37.257 39.6962 37.3113 39.7678 37.3656 39.8394C37.3913 39.8728 37.417 39.9062 37.4434 39.9407C37.5697 40.1083 37.6713 40.2573 37.7282 40.4611C37.5657 40.3986 37.4328 40.3218 37.2929 40.224C37.2505 40.1947 37.2082 40.1654 37.1646 40.1352C37.1203 40.1044 37.0761 40.0737 37.0304 40.042C36.9412 39.9813 36.8518 39.9207 36.7624 39.8602C35.8956 39.272 35.8956 39.272 35.4724 38.9755C35.3874 38.916 35.3874 38.916 35.3006 38.8553C35.1693 38.7564 35.1693 38.7564 35.0617 38.6273C35.0264 38.6401 34.9911 38.653 34.9547 38.6662C34.9247 38.6281 34.8946 38.59 34.8637 38.5508C34.7434 38.4124 34.6203 38.3029 34.4751 38.1883C34.4241 38.1477 34.3731 38.1072 34.3205 38.0654C34.2675 38.0236 34.2146 37.9819 34.16 37.9389C33.8052 37.6585 33.4581 37.3742 33.1234 37.0729C32.9626 36.9289 32.7971 36.7903 32.6313 36.6514C32.107 36.2094 31.5981 35.7517 31.088 35.2953C30.73 34.9754 30.37 34.6599 29.9945 34.3582C29.9858 34.4168 29.9858 34.4168 29.977 34.4767Z" fill="#553920"/>
</svg>
